<svg xmlns="http://www.w3.org/2000/svg" viewBox="0 0 798.7 1181.78"><defs><style>.cls-1{opacity:0.17;}.cls-2{fill:#fff;}</style></defs><title>Asset 2</title><g id="Layer_2" data-name="Layer 2"><g id="Layer_1-2" data-name="Layer 1"><g class="cls-1"><path class="cls-2" d="M453.71,647.61c-33,.06-66,0-99,.27-7.33.07-9.81-2.8-9.75-10.29.24-30.32,0-60.65.18-91,.05-6.23-.56-10.22-8-9.31-3.86.47-6.89-2.52-9.58-5.33q-42.61-44.55-85.27-89.08A20.06,20.06,0,0,1,236.4,428c.16-13.07-.25-26.15.14-39.22.22-7.09-.93-11.27-9-9.67-3.34.67-6.91.22-10.36.06-3.7-.17-8.44.09-8.25-5.37.19-5.29,4.94-4.95,8.61-5,4.79-.11,9.59,0,14.38.11,1.89,0,4.14.42,4.1-2.43,0-3.27-2.4-2.15-4.13-1.8a51.32,51.32,0,0,1-17.48.33c-3.08-.42-5.8-2-5.7-5.8s3.12-5.06,6.16-5.15c5.85-.17,11.7,0,17.55.2,2.2.08,3.9-.31,3.61-3s-2.18-1.72-3.69-1.44a60.74,60.74,0,0,1-17.5.29c-3.38-.35-6.47-1.91-6.1-6.19.33-3.81,3.44-4.78,6.47-4.83,5.58-.09,11.16.17,16.74.33,1.62,0,4.09,1.95,4.09-1.59,0-2.75-2.33-2.46-4.2-2.44-4.26.05-8.53.27-12.78.06-4-.21-9.91,1-10.12-5.11-.22-6.6,5.76-5.06,9.74-5.23,4.78-.2,9.58.06,14.37.13,1.38,0,2.8,0,3-1.91.19-2.19-1.09-2.88-3-2.87-5.86,0-11.72.23-17.57,0-3.29-.1-6.84-1-6.7-5.41s3.7-4.94,7-5c5.59-.05,11.18.05,16.77.16,1.69,0,3.42,0,3.45-2.26s-1.55-2.5-3.33-2.48c-5.85.08-11.71.23-17.56,0-3.38-.12-6.69-1.35-6.33-5.77.31-3.88,3.52-4.5,6.59-4.53,5.58-.06,11.17,0,16.76.1,1.94,0,4,.32,3.84-2.65-.16-2.39-2-2.07-3.62-2.05-7.17.08-14.36.87-21.48-.58-1.13-.23-2.49-.45-2.54.9-.19,6.54-5.65,10.92-5.59,17.94.37,42.83.23,85.68.12,128.51A16.64,16.64,0,0,0,208,449.89c11.43,11.65,22.69,23.49,33.92,35.35,2.69,2.84,5.47,4.93,9.46,5.59,5.28.87,8.43,4.53,9.11,10.15.64,5.19-1,9.37-5.66,11.78s-9.26,1.88-13.24-2c-1.17-1.14-2.39-2.21-3.59-3.31,1.43-8.76-4.12-13.74-9.31-19-2.71-2.75-4.47-3.47-6.23,1.06-2.41,6.23-8.49,9.26-12.84,5.45-8.06-7.06-16.83-5.11-25.59-5.55-7.45-.38-19.28-11.06-19.75-18.89-.36-5.85-2.9-9.66-6.63-13-3.46,14.63-.27,26.84,11.83,35.74a19.28,19.28,0,0,1,2.26,2.34c10.3,10.85,16.63,11.82,29.48,4.69,4.7-2.61,9.44-2.71,12.88,2,3.16,4.33,2.53,9.23-1.1,12.87-4,4-9,3.83-12.9-.16-5.42-5.59-11.24-4.07-17.77-3.05,5.55,7.94,26.26,11.67,32.81,6.46a7.41,7.41,0,0,0,3.14-5.56c.2-5.33,1.34-10.08,7-11.74,5.9-1.73,9.47,2.08,12.77,6.31-.52,8.06-3.86,13.17-12.35,13-4.72-.1-6.33,6.05-11,6.81,13.37,0,26.74,0,40.12,0,3.24,0,5.32-2,7.67-3.84,4.62-3.69,9.56-4,13.53.83a9.56,9.56,0,0,1-.08,13c-3.71,4.26-8.65,4.68-12.88.92-3.81-3.39-7.93-4-12.57-3.94-18.63.09-37.26-.17-55.88.15-6.17.11-10.85-1.88-14.61-6.77-.67-.86-1.48-1.61-2.1-2.5-7.45-10.54-16.75-16.75-29.9-14.23a12.6,12.6,0,0,1-4.78,0c-11.62-2.37-20,3.14-26.69,12.21-3.66,5-8.23,6.31-13.93,6.24-17.56-.19-35.13,0-52.69-.07-4.33,0-8,.56-11.65,3.91-6.3,5.8-14.83,1.76-15.46-7.17-.26-3.71-.37-5.77-4.56-7-6.42-1.86-8.62-8.13-5.81-13.72,2.53-5.05,8.49-6.32,13.85-3.21,14.4,8.37,28.9,16,46.38,13.49a90,90,0,0,1,22.31,0c9.6,1.06,16.59-2.9,22-10.47,4.62-6.5,10.45-8.61,18-8.19,9,.51,18,.12,26.75.12.88-2.9-1.05-3.62-2-4.74-8.22-9.73-8.24-9.71-17.24-.91-.59.57-1.13,1.19-1.76,1.71-6.07,5-39.56,4.34-45.08-1.38-4.31-4.47-9.08-6.14-15-6.06-17,.23-34.06.12-51.09.05-4.37,0-8.23.57-11.71,4-4.47,4.38-9.48,3.55-13.42-.92-3.53-4-3.45-8.86.14-12.81,4.06-4.47,9-5,13.4-.6a11.21,11.21,0,0,0,8.57,3.45c19.68-.06,39.36,0,59.07-1.35-12.9,0-25.8-.08-38.69,0-11.12.09-22.1,1.32-30.62-9.42-3.62-4.56-12.29-.91-16.16-7.32v-10c11.38-8.15,16.59-6,18.83,7.84,1,6.28,8.36,11.89,16.26,12,16.5.14,33,.07,49.51.06,3.8,0,7.64,0,10.15,3.6,5.16,7.35,12.22,8.56,20.43,8.44,23.7-.33,22.06,1.45,22-23.2q0-13.35,0-26.71c0-5.82,0-11.24-4.31-16.26-3.94-4.54-2.62-10,2.35-13.67,4.72-3.49,11.27-2.13,13.41,3.75,2.54,7,4.68,5.52,8.25,1.24,5.64-6.78,13.3-11.69,15-21.87.78-4.84,5.89-6.16,10.48-5.13,4.89,1.09,7.07,5,6.91,9.87-.18,5.52-3.7,8.55-8.64,9.37C164,402.7,150.15,420.9,152,437.88c.16,1.6-.25,3.77,1.71,4.14,1,.18,2.43-1,3.25-1.92,5.38-6.3,12.37-11.15,14.2-20.47,1-5.31,5.77-7.09,10.81-6a9,9,0,0,1,7.47,9.49c-.07,5.32-3.15,8.76-8.29,9.64-1.81.31-3.73-.18-5.57,0-4.12.43-7.08,3.45-8.52,6.8-1.71,4,3.24,3.19,4.91,4.92,4.15,4.3,5.37,8.79,2,14.13-6.53,10.35-.33,22.81,12,23.69a99.54,99.54,0,0,0,15.15-.18c5.11-.42,7.95-7,15.23-4.69-5-8.61-11-13.68-16.5-18.94-6.19-5.87-8.71-12.26-8.62-21.15.42-41.72.17-83.45.21-125.18,0-4.78-.19-9.2-3.32-13.32-4-5.24-3.78-11.09.82-15.86,4.26-4.42,9.34-5,14.51-1.23,1.27.92,2.71,2.86,4.16,1.78,7.52-5.59,16-2.6,24-3.2,1.75-.13,4.24.8,4.39-2.09.19-3.72-2.71-2.5-4.63-2.52-5.59-.05-11.18.05-16.77-.05-2.86,0-5.54-1-5.82-4.45-.33-3.92,2.52-5.44,5.63-5.6,5.84-.3,11.7-.16,17.56-.16,1.88,0,4.19.33,4.11-2.47-.1-3.54-2.56-1.69-4.15-1.47a64.58,64.58,0,0,1-17.51,0c-3-.41-6-1.74-5.87-5.59s3-5.15,6.09-5.33c4.77-.27,9.66-.76,14.34,0,6.5,1,7.73-2,7.59-7.85-.28-11.4,0-22.81-.11-34.21-.07-6.72,1.49-12.39,6.6-17.09s9.27-10.87,14.64-15.32c7.21-6,9.71-13.13,9.21-22.52-.6-11.1-.26-22.25-.1-33.38.07-4.74-1.17-8.54-4.5-11.93-10.49-10.66-20.91-21.41-31.12-32.38-3.84-4.12-8.06-5.51-13.49-5.49-46.59.16-93.18-.17-139.77.29-10.15.1-18-2.53-24.58-10.64-5.51-6.76-12-12.61-17.81-19.13-6.25-7-6.46-15.31-.94-20.77s14.17-5.55,19.62,2.1c13,18.21,29.71,22.17,50.6,21.35,40.14-1.59,80.38-.32,120.58-.58,8,0,14.17,2.27,19.81,8.43C258.39,66,272.06,80.05,285.79,94A23.24,23.24,0,0,1,293,111.74c-.27,19.19-.17,38.39,0,57.59,0,5.92-1.57,10.65-5.87,14.8-5.85,5.65-10.9,12.21-16.81,17.78-5.44,5.12-7.22,11.13-7.2,18.52q.21,99.3.07,198.61c0,5.27,1.94,8.87,5.32,12.39,24.89,25.91,49.62,52,74.57,77.86,5.56,5.75,10.05,11.17,7.35,20.34-1.74,5.89,3.52,4.27,6.14,4.3,19.7.16,39.4.09,59.11.09,9.58,0,19.17.27,28.75-.09,6.65-.25,9.62,1.92,9.56,9.44-.32,34.77-.23,69.55-.29,104.32ZM351.6,590.37c0,13.9.2,27.81-.08,41.71-.13,6.36,2,9,8.27,8.93q39.51-.33,79,0c6.06,0,8.64-2.12,8.6-8.7q-.3-41.29,0-82.59c0-6.37-2.11-9-8.38-8.9q-39.51.33-79,0c-6.1-.05-8.65,2-8.5,8.65C351.82,563.11,351.6,576.74,351.6,590.37Z"/><path class="cls-2" d="M798.7,474.05c-10.75-7.42-18.29-18.29-27.14-27.73-1.88-2-1.26-5.25-1.27-8.05q-.13-62.16-.39-124.32c0-13.64-6.4-20.22-19.57-20.28-14.11-.05-28.22.18-42.32-.1-6-.12-10.61,1.59-14.63,6.59-4.77,5.93-10.64,10.88-15.54,16.71-6.12,7.25-13.33,9.52-22.56,9.29-25-.62-50-.14-75.06-.28-5.24,0-10,.32-13.72,4.88-2,2.45-5,2.92-8,3-7.86.26-15.71-.83-22.74,5.2-3.73,3.2-8.2.25-11-3.67-3-4.2-2.38-8.5,1-12.13s8.3-4.52,11.55-1.21c5.85,5.95,12.61,4.79,19.41,4.86,4.69,0,8.09-1.91,10-6.65-3.55-1.94-4.84,1.18-6.77,2.81-4.23,3.56-8.8,4.31-13,.41-3.91-3.59-4.49-8.26-1.32-12.71,3.41-4.78,8-4.85,12.85-2.43,2.07,1,3.47,3.64,6.41,3a3.29,3.29,0,0,0-2.73-4.81c-7.71-.46-15.77-3.51-22.8,2.88-4.37,4-9.31,4.57-13.55,0-3.57-3.87-3.74-8.59-.42-12.87,3.91-5,8.53-5,13.37-1.35,1.29,1,2.76,2.9,3.89,2.71,14.18-2.36,26,7.77,39.7,7.83,24.22.09,48.45,0,72.67.24a11.28,11.28,0,0,0,9.1-4c5.75-6.18,12.34-11.64,17.36-18.39,8.42-11.33,20.14-17.3,31.82-23.38,5.11-2.66,3.43-4.21.23-6.59a11.5,11.5,0,0,0-7.46-2.19c-32.72.29-65.44.12-98.15.83-10.1.21-14.45-7.57-20.11-13.19-14.42-14.34-28.2-29.39-42.09-44.29a11.82,11.82,0,0,0-9.33-3.8q-64.68-.1-129.36-.14a9.23,9.23,0,0,0-7.16,3c-4.18,4.46-9,4.87-13.64,1.13s-4.07-8.6-1.52-13.51a9.22,9.22,0,0,0,.48-2.27c-3.19-1.31-4.32,1.56-6.17,2.84-4.88,3.38-9.64,3.16-13.71-1.27-3.52-3.85-3-8.35.1-12.08,4-4.76,9-5,13.46-1,3,2.72,6,4.1,10,4.09q55.5-.12,111-.05c1.27,0,2.54-.24,4.14-.39-1.42-5.5-3.47-7.51-9.44-7.36-26.87.66-53.75.32-80.63.37-11.69,0-23.4.53-35.07,0-9.25-.41-14.53-6-14.17-13.38.4-7.93,6.38-13.83,15.17-13.9,27.68-.21,55.43-1.31,83,.32,18.12,1.08,32.06-3.5,42.72-18.88,4.6-6.64,11.19-8.41,18.94-8.38,47.92.22,95.83,0,143.74.23,6.92,0,12.1-1.89,16.82-7.31,7.34-8.42,15.46-16.08,23-24.28a16.12,16.12,0,0,1,12.81-5.48c13,.14,26.09-.05,39.13.07,9.92.1,15.7,5.4,15.52,13.82s-5.93,13.34-15.92,13.47c-9.58.11-19.17.16-28.74,0a13.9,13.9,0,0,0-11.31,4.93c-7.54,8.23-15.59,16-23,24.35-5.11,5.81-11,8-18.39,8-47.37-.24-94.76.05-142.13-.62-12.21-.17-18.89,6.46-25.66,16.07,4.72,1.15,6.51-2,8.22-4.37,4.73-6.62,10.75-8.74,18.64-8.69,51.11.3,102.22,0,153.32.27,6.68,0,11.78-1.73,16.14-7,3.64-4.41,8.42-7.87,11.68-12.53,7.79-11.13,18.06-14.43,30.65-12.76,5,.66,9.71.22,13.91-4.17,3.88-4,9.1-3.21,13,.71s3.6,8.71.42,12.85c-3.52,4.57-8,4.83-12.83,1.78-12.79-8.14-30.19-7.17-39.15,4.87-14.1,19-31.18,24.5-53.85,23.48-42.51-1.91-85.16-.12-127.74-.79-13.82-.21-22.24,4.17-26.32,19.32a29.59,29.59,0,0,1-1.51,3.65c.57,2,2.09,1.62,3.32,1.71s2.63,0,4,0c1-3-1.68-4.6-1.81-7.06-.28-5.6,4.07-11.32,8.51-9.16,7,3.43,15.4,3.53,21.29,9.82,14.32,15.3,29,30.23,43.21,45.67,5.86,6.39,11.91,9.76,20.84,9.59,30.33-.57,60.68-.09,91-.32,6.28,0,11.74,1.06,15.47,6.58,11.73,17.39,27.58,23.29,47.55,20.58,9.94-1.34,20.2-.22,30.31-.21v6.68H738.77c0,1.18,0,2.36-.07,3.54,19.87,3,40,.53,60,1.46v6.68c-11.18,0-22.47-1-33.5.3-19.58,2.37-35.46-2.71-47-20.13-3.82-5.77-9.51-7-16.12-6.95-30.87.27-61.74,0-92.6.23-6.6.06-11.54-1.86-16.21-6.89-15.37-16.57-31.14-32.74-46.78-49-2.42-2.53-4.62-5-8.73-5-42.82.29-85.64.34-128.46.61-2.8,0-7.75-1.77-7.87,2.52-.09,3.7,4.91,3,7.93,3.54a5.3,5.3,0,0,0,.8,0c42,0,84.09.09,126.13-.3,5.91,0,10.08,1.58,14.08,5.83,15.5,16.44,31.28,32.59,46.72,49.09a16.73,16.73,0,0,0,13.4,5.75c24.74-.2,49.58,1.26,74.21-.48,20.68-1.47,37.62,2.6,49.69,21.22.15.23.4.37.57.59,3.27,4.23,7.49,5.53,12.67,5.49,17-.14,34,.11,51.08.21v6.67c-17.3,0-34.6-.13-51.89,0-6.19.06-11.59-1-15.42-6.73-1.65-2.47-3.06-4.39-5.59,0-4.9,8.51-9.14,9.06-16.85,3.35-5.84-4.31-8-3.61-11.65,3.85,2.47,1.49,5.18.78,7.77.79,17.82.07,35.65,0,53.48.06,13.5,0,24,10.94,24.06,25,0,38.37.84,76.78-.39,115.11-.49,14.93,4.31,24.85,15.16,32.92.43.32.88.62,1.32.93ZM713.82,230.78c-2.88-5-7-3.58-10.38-3.59-30.27-.12-60.53-.06-90.8-.08-5.73,0-11.59.79-16.76-3.2,3.33,6.2,8.18,8.05,14.6,8,30.53-.25,61.07-.08,91.6-.14C705.73,231.76,709.48,232.47,713.82,230.78Z"/><path class="cls-2" d="M798.7,999.84c-20.49.09-41,.1-61.48.32-5.39.06-8.92-3-12.36-6.61Q680.43,946.92,636,900.28c-7.31-7.68-14.56-15.42-21.4-22.67-1.67-.47-2,.2-2.33,1-3,7.66-8.51,10.62-14,7.5-5-2.89-6-9.45-1.93-16a18,18,0,0,0,2.77-10.18c0-13.91-.12-27.82,0-41.73.06-5.07-1.24-9.28-5-12.6a3.91,3.91,0,0,1-.56-.59c-14.47-20.85-33.3-29.52-58.31-25.9-14.37,2.07-29.23.24-43.87.44a17.57,17.57,0,0,1-14.16-6.21c-7.87-8.68-16-17.12-24-25.63-4.43-4.69-8.72-6.81-14.28-1.07-4,4.09-8.94,3.57-12.79-.72-3.48-3.87-4.19-8.53-.65-12.81,3.9-4.71,8.11-3.85,13.56-1.7,18,7.06,28.71,22.87,41.74,35.89a16.64,16.64,0,0,0,12.79,5.33c22.89-.18,45.78.06,68.68-.18,6-.06,10.64,1.59,14.83,6.3,7.41,8.36,15.18,16.4,23.12,24.22,4,4,5.58,8.34,5.48,14-.24,14.18-.12,28.37,0,42.56,0,2.79-.77,6,2.84,8.62,1.73-6.08-.13-11.48,0-16.81.4-12.49.24-25,.37-37.51,0-5-1.79-8.85-5.38-12.37-7-6.84-14.06-13.72-20.06-21.46-6.87-8.88-15.19-12-25.78-11.83-21,.4-42.06-.05-63.08.21a17.54,17.54,0,0,1-14.1-6.08c-12.26-13.15-24.85-26-37.23-39-4.72-5-8.81-7-14.9-1.2-5.1,4.81-10.9,3.42-14.93-2.93-1-1.54-1.46-4-4-3-1.74.69-2,2.57-1.94,4.23a12.63,12.63,0,0,1-5,10.81c-2.95,2.33-2.85,5.73-2.85,9.1,0,36.16.05,72.32-.07,108.48a15.63,15.63,0,0,0,4.81,11.77c12.15,12.47,24,25.24,36.21,37.66a17.49,17.49,0,0,1,5.33,13.25q-.14,89.29.14,178.58c0,6.49-4,9.37-7.42,13-5.82,6.11-11.9,11.48-10.76,21.8,1.08,9.73,10,21.41,19.5,23.15,8.6,1.57,12.3,8.78,7.86,15.45-2.13,3.2-5.19,4.93-8.93,4.32-4-.65-7.85-3.31-7.57-7.37.58-8.38-5-12.17-9.45-17.07-11-12.17-11.2-26.5-.58-38.8a14.07,14.07,0,0,0,1.33-2.31c-8.72,5.6-9.61,7.16-9.67,17,0,5.84.06,11.69,0,17.53-.06,4.25.43,8,3.43,11.52,3.92,4.57,3.91,9.77-.71,14-3.9,3.55-8.46,3.7-12.33,0-4.48-4.29-4.67-9.87-.52-14.06,6-6,5-13.38,4.35-20.3-1.25-13.92,1.07-25.73,12.95-34.14,4.19-3,5.33-7.8,5.32-13.24q-.2-79.27,0-158.55a18.5,18.5,0,0,0-5.65-14c-12.37-12.63-24.4-25.63-36.83-38.21-4.35-4.41-6.08-9.17-6.06-15.5q.27-80.1.07-160.22c0-6.82.59-13.5-4.64-19.45-3.3-3.76-2.11-9.14,2-12.59s8.51-2.91,12.24.89,4.75,8.91,1,12.63c-5,4.9-5,10.53-5,16.71q.11,79.28-.06,158.55c0,6.6,1.65,11.51,6.29,16.16,12.68,12.69,24.91,25.88,37.34,38.84,1.27,1.32,2.76,2.42,4.84,4.23.92-5.33-2.3-7.37-4.53-9.73-11.42-12.06-22.85-24.11-34.47-36a17.47,17.47,0,0,1-5.37-13.24c.14-37.55.06-75.1.05-112.65,0-1.12-.35-2.45.11-3.31,4.79-9,7.61-17.48.57-27.26-2.17-3,1.65-7.87,5.76-9.55,4.9-2,9.39-.39,11.61,4.31,2,4.24,3.72,4.83,7.69,2.88,3.82-1.87,7.37.2,9.9,3.38,2.81,3.52,6.15,3.9,11.34,2.5-10.73-11.15-20-22.66-31.47-32-1.25-1-2.86-1.6-4-2.74-3.71-3.77-4.58-8.31-1.59-12.8,2.64-4,6.62-5.77,11.19-3.7s7.68,6.34,5.54,11.33c-2.75,6.41.25,9.59,4.05,13.53q30.36,31.39,60.37,63.18A16.76,16.76,0,0,0,498.66,754c38.06-.18,76.13-.12,114.19,0,4.4,0,8.09-.52,11.39-4.38,3.72-4.36,8.57-4.23,12.77-.23,3.84,3.66,4.73,8.26,1.54,12.7-3.56,4.93-9,6.32-13.29,2.25-4.79-4.59-9.92-4.59-15.5-4.58H488.36c3.78,3.48,6.72,2.64,9.3,2.65,21.57.08,43.14.46,64.68-.15,9.27-.27,16.71,1.71,22.24,9.75,2,2.92,4.25,5.65,7.63,10.09.67-4.54.82-6.09,1.14-7.59,1.16-5.38,4.44-8.34,9.69-7.87,5.09.45,8.74,3.67,8.66,9.13-.08,5.69,2.24,9.45,6.19,12.71,9.61,7.92,13.25,18.18,11.33,30.84-1.63,10.76-.35,21.69-1.19,32.47-.72,9.18,2.4,15.92,8.41,22.17Q685.39,924.87,734.09,976c6,6.25,22,7.69,28.76,2.39,4.2-3.29,8.32-5.19,13.13-2s4.68,7.78,3.13,12.58c-1.3,4,1,4.22,3.62,4.24,5.32,0,10.65,0,16,0ZM764.15,993c-4.62-6.67-9.82-5-14.11-4.73-8.85.52-15.45-2.37-21.85-9.18-33.16-35.29-66.77-70.13-100.36-105-3.92-4.07-5.44-8.41-5.35-14.08.27-15.56.14-31.12.16-46.69,0-9.45-9.06-23.38-17.35-26.44-1.38-.51-3.15-.92-4.51,1.72,1.75,2,3.41,4.59,5.64,6.37,7,5.54,9.51,12.51,9.09,21.72-.65,13.86.23,27.8-.32,41.67-.32,8,2.34,13.49,7.65,19,33.83,35,68,69.56,100.71,105.66C735.81,996.51,748.93,992.35,764.15,993Z"/><path class="cls-2" d="M0,233.69c6.57-7.78,9.3-8.46,16.58-2.65,2.29,1.83,2.66,1.29,4.08-.52,4.4-5.59,9.78-6.16,14.36-.9,4.38,5,7,2.71,10.39-.81,15.38-16.18,31.18-32,46.13-48.56,6.77-7.52,13.85-11.55,23.74-10.13,7.44,1.06,13.27,0,12.32-10.5-.43-4.76,3-7.72,7.6-7.85,5-.13,8,2.75,8.44,8a59.65,59.65,0,0,1,.15,10c-.9,10.47.38,19.86,9.49,26.52,4,2.89,3.55,7.76,3.54,12.25q0,40.47,0,80.95c0,11.85,11.88,24.79,23.08,25.33,5.23.25,8.71,3,9.25,8.47s-1.87,9.35-7.1,10.49-10.3-.66-11.19-6.52c-1.41-9.32-8.7-13.6-13.67-19.87-.93-1.17-2.35-2.86-4-1.54-.83.66-1.1,2.41-1.2,3.7-.69,8.79-.55,17.16,7.42,23.15,3.63,2.73,6.58,6.49,9.64,10,2.84,3.21,5.75,5.07,10.36,4.77,6-.38,9.5,3.57,9.78,9.71.27,6-3.23,9.47-8.73,9.84-5.91.4-9.95-2.81-10-9.23,0-5.21-2.77-8.52-6.14-11.06-15.94-12-20.75-27.75-19.39-48.21,1.77-26.82.43-53.87-.72-80.93-.2,3.55-.22,7.12-.65,10.63-.6,4.86-3.52,7.43-8.16,7.41s-7.2-2.78-8-7.61c-2.28-14.44-2.32-14.28-16.75-14.08A14.76,14.76,0,0,0,99.45,219c-18,19-36.09,37.81-54.13,56.72-1.67,1.75-4.07,3.28-4,6,.26,6.83-2,11.66-9,12.27-7.08.63-9.59-4.61-10.86-11.52-2.63,2.1-1.51,4.86-2.25,6.91-1.94,5.39-5.87,6.95-10.86,6.05s-7.13-4.55-7-9.6,2.52-9.28,7.42-9.12c6,.21,10-1.91,13.77-6.4,2.85-3.39,7.66-1.26,11.23-3.55-6.07-.74-12.11-3.13-17.76,2.44-5.92,5.84-11.19,2.57-16-2.17Z"/><path class="cls-2" d="M372.19,1181.78c2.85-14.37-4-24.37-13.82-32.87-4.08-3.54-5.42-7.82-5.41-13.18q.14-80.52,0-161.05a18.64,18.64,0,0,1,6.26-14.51c5.67-5.48,11.76-10.76,16.78-19.12-13.45,5.42-24.38,21.3-24.38,33.67q0,82.6,0,165.22c0,5.85,0,11.29,4.36,16.26,3.69,4.2,2.65,9.52-1.66,13.27-3.7,3.21-8,3.41-11.7.09-4.17-3.76-5.27-8.87-1.51-13.32,6.21-7.34,3.23-15.87,3.77-23.93.28-4.06-2.28-3.4-4.85-2.68-4.68,1.31-8.41-.22-10.87-4.64-2.3-4.13-1.85-8.32,1.26-11.52,3.75-3.86,3.46-8.48,3.46-13.18,0-43.11.12-86.23-.09-129.34,0-7.14,1-13.32,6.83-17.59,17.5-12.76,22.22-30.15,20.44-51.91-1.76-21.54-.38-43.36-.41-65.05,0-3.59.61-7.79-2.76-10-7.06-4.56-7.46-11.35-7.06-18.87.36-6.62.62-13.06-4.76-18.55-3.74-3.82-2.67-9,1.25-12.57s8.54-3.63,12.45-.29c4.09,3.49,4.69,8.94,1.38,12.69-5,5.67-4.43,12-4.71,18.65-.24,5.76,1.39,10.3,5.59,14a13.94,13.94,0,0,1,4.92,10.88c.56,32,.66,63.94-.05,95.92-.11,4.78-1.18,8.82-5,11.6-18.73,13.6-23.18,32.21-21.94,55.46,1.87,34.66.49,69.51.49,104.28a38.64,38.64,0,0,0,0,4.17c.29,2.6-.81,7,2.45,6.93,3.5-.07,2-4.47,2-6.92.11-44,.24-87.89-.06-131.84-.05-7.83,1.29-14.43,7.51-19,14.31-10.54,17.4-24.78,17-42.58-1.14-47.54-.38-95.12-.41-142.68,0-12.37-10.2-24.08-22.13-25.49-5.63-.67-8.85-4.1-9-9.78-.19-5.39,2.76-9.11,8-9.68s9.69,1.57,10.57,7.65c1.42,9.83,9,14.66,14.87,20.85,2.26,2.37,3.65,1.31,4-1.87.6-5.1-2-8.68-5.44-11.39-8.65-6.76-7.47-18.34-12.35-27-2.12-3.77,1.3-7.91,5.25-9.94,4.16-2.14,7.88-.93,10.83,2.47s3.21,7.43.91,11.53c-6.52,11.57-6.62,11.7,2.59,21.08,3.78,3.86,4.86,8.28,4.86,13.53q-.1,93.87,0,187.75c0,6.06-1.39,11.1-6.07,14.58-13.67,10.18-17,23.76-16.59,41,1.14,45.58.49,91.22.27,136.83,0,7.39.74,14,7,18.35,11.68,8.24,13.92,20.08,12.13,33.57Z"/><path class="cls-2" d="M0,519.12c7.9,4.86,13.55,12.33,19.71,19.09,9.12,10,18.12,10.9,27.25.87,4.67-5.12,9.69-6.85,16.25-6.79q41.52.39,83,0c6.92-.08,12.63,1.43,16.74,7.41,5.56,8.08,13.06,9.8,22.28,9.57,30.85-.78,61.74,0,92.56-1.93,9.49-.59,17.2,1.45,23,9.75,3.16,4.53,6.59,5.82,11,.84,3.94-4.46,8.83-3.73,12.74.32s3.94,9.11.41,13.54c-3.7,4.63-8.45,4.7-12.79,1.17-5.39-4.38-12.32-6.26-16.78-12.24-6.17-8.26-15.2-6.42-23.62-6.25-1.3,0-3.45.55-2.59,2,2.74,4.67,1.16,9.66,1.92,14.21.62,3.7,4.46-.57,6.52-2,4.36-3,8.63-3.3,12.29.7s3.78,9,.62,13.68c-.85,1.24-2.5,1.89-3.33,3.63,10.8-.75,21.73,4.29,31.5-4.25,3.85-3.36,8.87-1.36,11.91,3,2.93,4.16,2,8.54-1,12.25-3.28,4-8,4.74-11.42,1.46-5.42-5.23-11.54-4.75-17.89-4.75q-65.07,0-130.15,0c-5.55,0-10.77-.16-15.54,4.47-4,3.87-9.09,2.67-12.63-1.93-3.06-4-3-8.3.3-12.15,3.73-4.38,8.66-5.47,12.74-1.58,4.28,4.08,8.89,4.3,14,4.29,36.72,0,73.43,0,110.78,0-3.55-6.17-8.13-8.07-14.4-8-27.94.25-55.89-.14-83.83.27-7.82.12-14.21-1.56-18.77-8.33-5-7.41-11.76-8.94-20.09-8.79-25.54.47-51.09.28-76.64.07-5.42,0-10.42.9-13.59,5.39-5.49,7.77-15.28,8.14-21.55,14.67-2.77,2.9-7.14,1.85-10.14-1.27-4.66-4.82-3.55-10-.43-15.85-7,6-13.74,8.7-20.32.25v-8.34c4.1-5.43,8.82-8.1,15.06-3.57,11,8,27.19,6.8,36.59-3.41,4.44-4.82,9.21-6.6,15.52-6.54,26.86.26,53.72.14,80.58.07,2.71,0,5.7.79,8.35-1.34-2.71-4.73-6.79-3.45-10.26-3.47-26.06-.11-52.12.15-78.18-.18C60,539,54.08,540.65,48.73,547c-7.23,8.59-21.29,8.1-29.22.09Q9.77,537.26,0,527.46Zm57.93,35.13c3,2.48,6,1.52,8.82,1.53,25.81.09,51.64.41,77.44-.12,9.27-.19,16.68,2,22.35,9.81,4,5.53,9.33,7.37,16,7.26,21-.35,42.05-.13,63.08-.15,1.86,0,3.72,0,5.58-.21,1.07-.09,2.33-.64,2.09-1.92a3.23,3.23,0,0,0-2-2.17,41.49,41.49,0,0,0-7.14-.52c-19.43,0-38.86-.4-58.28.16-8.67.26-15.51-1.76-20.93-9.08-3.66-4.93-8.14-8.06-14.89-8-27.68.37-55.36.12-83,.2C64,551.06,60.51,550.2,57.93,554.25Zm198.87.25c-3.45,0-6,0-8.63,0-22.58.48-45.16.93-67.73,1.54-2.06.06-5.82-1.3-5.75,2.18.08,3.8,3.88,2.78,6.4,2.78,22.33,0,44.66-.06,67,.15C252.15,561.2,254.64,559.74,256.8,554.5Z"/><path class="cls-2" d="M635.77,1181.78c0-2.78-.08-5.56,0-8.33.08-4.51-2-6.63-6.29-6.61a29.35,29.35,0,0,1-6.35-.53c-4.57-1-7.93-3.59-7.88-8.94,0-5,3.37-7.14,7.5-8.46,4-1.28,9.36,1.48,11.9-2.9,2.66-4.59.82-10.34,1.15-15.57.29-4.52-1.59-7.89-4.6-11Q604,1091.24,577,1062.87c-1.89-2-3.71-3.91-6.75-3.82-6.21.17-10.62-2.68-10.85-9.43s4.29-9.61,10.3-10.23c.41-.05.77-.55,1.26-.92-1.72-2.44-4.46-1.07-6.55-2-4.71-2.14-7.38-5.59-6.41-11.06.91-5.13,4.44-7.35,9.2-7.55,5.41-.22,9.36,2.87,9.21,8.12a16.31,16.31,0,0,0,5.79,13.68c2.89,2.63,2.1,6.63,3.6,11.88.8-8.4,1.23-14.44-3.3-20.19-3.57-4.54-2.39-9.71,2-13.2,4.12-3.28,8.77-2.59,12.35,1.11,3.76,3.89,3.8,9.13.38,12.82-5.73,6.18-4.29,12.84-2.58,20.06-.26-8.31,2.88-14.84,8.55-20.2,1.75-1.65,1.54-4,1.6-6.23.12-4.71,2.24-8,6.71-9.12,3.53-.89,7-.39,9.53,2.65,3,3.58,3.28,8,.69,11.58-2.87,3.91-2.48,6,.78,9.46,3.54,3.71,2.27,8.58-.88,12-4,4.41-2.74,7.61.8,11.29,14.9,15.46,29.42,31.35,44.66,46.44,8,7.92,13.58,16.1,11.77,28.22-1,6.66,1.35,10.41,8.55,10.57,4.86.11,8.82,3,8.89,8.76.07,4.79-3,8.67-7.17,8.56-11.84-.31-10.65,7.72-10.21,15.63Z"/><path class="cls-2" d="M0,696.05a46.5,46.5,0,0,1,7.18,0c9.34,1.42,16.69-1.95,22.16-9.82,5.9-8.47,13.71-11.4,23.59-10.37,6.53.69,12.82.32,18.81-4.52,5.55-4.49,14.34,1.59,14.05,8.81-.38,9.4-.38,9.4,8.83,8.34,1.34-2.52-1.29-3.87-1.69-5.89-.91-4.57.27-8.34,3.85-11,3.34-2.5,7.49-3.06,10.36-.07,4.59,4.78,10,4.51,15.55,4.5,20.5,0,41-.22,61.48.11,6.88.11,12.06-1.85,16.91-7.16,12.68-13.87,26-27.13,38.8-40.86,3.81-4.08,7.87-6.06,13.37-5.9,10.64.3,21.29.15,31.93.09,7.7,0,15.75-1.38,20.66,8.92,1.13-10.72-7.45-21.64-16.16-21.89-13-.38-26.08-.05-39.12-.15-4.44,0-7.39,2.46-10.28,5.5-13.5,14.21-27.09,28.33-40.62,42.51-2.86,3-5.71,5.68-10.21,5.64-7.61-.05-15.12-.82-21.77,5.33-3.46,3.21-8.25,1.15-11.11-3-2.62-3.76-2.73-7.95.05-11.61,3-3.93,7.07-5,11.41-2.62,3.94,2.18,7.31,4.88,12.29,5.15,8.39.47,14.43-2.19,20.25-8.79,12.43-14.09,25.8-27.27,38.72-40.9a12,12,0,0,1,9.17-4.21c14.11,0,28.21,0,42.32,0,1.57,0,3.67-.2,4.64.71,7.43,7,15,12.45,25.8,13.28,5.37.41,6.46,9.75,2,14.48-2.7,2.9-4,4.17-.28,7.4s3.93,7.85,1.41,12.17c-2.13,3.65-5.51,5.28-9.58,4.4-4.66-1-7.17-4.26-8.13-9.13-2.2-11.12-8.05-16.2-18.57-16.29-7.45-.07-15,.77-22.33-.19-12.82-1.67-22.29,3.13-30.72,13-10.28,12-21.58,23-32.14,34.74-4,4.41-8.23,6.34-14,6.28-22.62-.23-45.24-.1-67.86-.09-2.13,0-4.26,0-6.38.13-2.63.12-5.32,1.3-5.19,4.06.14,3.15,3.34,1.9,5.19,1.91,25.54.09,51.09,0,76.64.08a12.45,12.45,0,0,0,9.43-3.52c4.34-4.21,9.2-4.49,13.47,0,3.63,3.87,3.91,8.63.63,12.86-3.84,5-8.93,5.17-13.42,1.33-4.78-4.09-9.9-4.26-15.66-4.22-43.37.29-86.75.28-130.13.37-1.71,0-3.43,0-5.12,1.3H75.85c31.67,0,63.34.35,95-.21,9.08-.17,16,2.15,21.45,9.64,3,4.12,6.62,6.73,12,7.06,5.7.35,8.43,4.66,8.07,10.39-.37,6-4.12,9-9.69,8.72s-8.4-4-8.88-9.79c-.79-9.79-11.2-19.89-20.66-19.91-40.19-.06-80.38,0-120.56-.12-5.16,0-9.56,1-12.63,5.48-6.58,9.58-15.46,12.73-26.4,11.27-4.46-.6-9-.3-13.55-.41v-15c2.92.07,5.94-.37,8.73.29,10.05,2.36,18.16-.32,24.58-8.91,4.27-5.72,10.17-7.26,17-6.77,6.23.45,12.52.1,20,.1-1.54-2.34-2-3.73-3-4.43-5.49-4-25.83-2.42-29.86,3-9.26,12.54-20.92,17.78-35.85,15.08A10.52,10.52,0,0,0,0,702.73Z"/><path class="cls-2" d="M239.61,1181.78c0-16.13.22-32.27,0-48.4-.11-6.29,1.17-11.54,6.11-15.4,8-6.25,10.47-14.45,9.69-24.78-.81-10.78-.14-21.68-.19-32.53,0-7.12.83-14.11-5.05-20.12-3.58-3.66-2.14-8.94,1.87-12.52,3.8-3.39,7.95-3.09,11.73-.13,4.11,3.24,5.94,8.16,2.55,12.38-4.66,5.8-4.47,12.17-4.45,18.84,0,14.46,0,28.93,0,43.39,0,4.55,0,9.55-4,12.14-15.11,9.86-11.57,25-11.34,39.73,5.36-.76,5.85-4.45,5.46-8.06-.82-7.7,1.85-13.67,7.68-18,11-8.26,13.69-19.24,13.41-33.19-.86-41.42-.22-82.88-.41-124.33,0-6.57,1.62-11.45,6.33-16.15,13.09-13.05,25.55-26.78,38.43-40.07a17.63,17.63,0,0,0,5.44-13.26c-.19-18.58-.08-37.18-.08-56.1-5,1.23-4.82,5.24-4.83,9,0,13.08-.22,26.16.06,39.22a20,20,0,0,1-6,15.5c-31.93,33.07-63.52,66.52-95.54,99.51-6.16,6.35-9.28,12.87-8.69,22,.65,10,0,20,.19,30,.14,8.63.5,17.24-5.09,24.54l.08-.11c-8.38,3.8-12.87,12.22-19.56,18-4.48,3.88-5.93,8.62-5.88,14.65.17,21.4-.09,42.8-.18,64.2h-6.39c0-22,.2-43.92,0-65.88,0-6.22,1-11.55,6.13-15.35,20-14.74,28.6-34.51,24.21-60-3.06-17.84,4-30.46,16.48-42.76,30-29.52,58.52-60.71,87.83-91A18.85,18.85,0,0,0,311.37,892c-.31-10.56-.15-21.13-.05-31.69.05-6.15.15-11.95-4.59-17-3.08-3.25-2.36-7.83.38-11.51,2.53-3.39,5.95-4.6,9.95-3.3,1.74.56,3.38,1.47,5.95,2.61,0-18.41,0-36.3,0-54.19,0-2.81-1.62-4.6-3.32-6.38-5.43-5.72-10.95-11.36-16.31-17.16-2.58-2.79-5.67-3.66-9.25-4.13-6.1-.78-9.85-4.54-9.37-11.2.4-5.45,4-8.52,9.12-8.65,6.55-.17,9.73,4,9.83,10.48,0,3.7,1.52,6.18,4,8.63,5,5,9.2,10.93,14.59,15.32,6,4.88,7.37,10.65,7.33,18.11-.21,41.14-.09,82.28,0,123.41,0,3.85-.77,6.9-3.51,9.7-13.86,14.16-27.47,28.59-41.4,42.67-4.81,4.85-6.41,10.35-6.39,17.14.16,45,0,90.07.23,135.11,0,5.5-1.23,9.41-5.26,13-4.21,3.78-7.81,8.32-11.55,12.65-4.53,5.26-4.33,11.66-1.45,17.07s5.8,10.46,1.5,16-9.59,3-14.58.37c-1.84,4.45-.52,8.69-1.22,12.71Z"/><path class="cls-2" d="M346.68,61.72c2,3.89,4.64,7.08,9.35,6.27,8.56-1.47,14.38,3,19,9.54C380.3,85,387,87.27,395.76,87c18.62-.57,37.27-.43,55.9,0,6.73.14,12.21-1.69,16-7.3,10.27-15.16,24-18.81,41.45-18.25,39.62,1.3,79.3.38,119,.44,5.41,0,10.3-.32,14.78-4.53,4.22-4,9.09-2.6,12.7,1.7,3.2,3.82,3.34,8.3.14,12.17-3.53,4.29-8.49,6-12.65,1.94-4.72-4.64-10-4.56-15.56-4.55-14.33,0-28.66,0-43.76,0,1.17,2.54,2.12,4.16,2.7,5.92a9.62,9.62,0,0,1-3.19,11.16c-3.56,3-7.59,3.33-11,.19-4.21-3.9-9-4.21-14.13-4.18-18.63.09-37.27.18-55.9,0-5.48-.07-10.21,1.23-13.29,6-13.27,20.33-31.68,25.88-54.4,23.4-16-1.75-32.39-.34-49.27-.34,1.21,5.62,4.15,7.21,8.61,7.21,26.35,0,52.7-.07,79.06.14,5.68,0,9.51-2.94,13.12-6.76,3.92-4.14,8-8.18,11.58-12.62,3.42-4.21,7.46-5.69,12.62-5.65,21.3.16,42.59,0,63.89.1,4.35,0,8.06-.55,11.58-4.09,4.22-4.24,9.41-3.71,13.45.86,3.61,4.09,3.32,8.73-.26,12.75-3.85,4.32-8.65,4.85-12.79,1-3.57-3.34-7.23-3.78-11.68-3.73-20,.22-39.93.33-59.89-.08-5.82-.12-10.8.81-14.08,5.8-10.69,16.27-25.49,20-43.56,18.67-19.87-1.43-39.91-.32-59.88-.32-3.71,0-7.35-.21-10.29,3.18-3.43,4-7.83,4.62-12.35,2.17-3.48-1.88-4.48-5.35-4.2-9.22.37-5.21,3.31-7.93,8.08-8.83.41-.08.74-.64,1.27-1.14-8.1-11.19-16.88-20.64-32.19-17.69-12.4,2.38-21.22-3.08-29.86-12.58-23.11-25.38-47.31-49.67-71-74.45A39.85,39.85,0,0,1,242.8,0h8c23,24.28,46.49,48.12,68.82,73.06,9.15,10.22,18.62,16,31.91,13.5,11.26-2.09,19.56,2.72,26.17,11.72,3.74,5.09,8.58,6.68,14.66,6.52,13.55-.34,27.32-1.63,40.65.23,22.91,3.2,40.25-4.72,53.42-23.9,3.5-5.09,8.06-6.4,13.8-6.33,20.22.23,40.43.1,60.65.08,4.15,0,8.42.08,9.85-6.28-18.56,0-36.72,1.25-54.65-.34-19.46-1.72-35.45,2.61-47.35,19.52-3.47,4.93-8.39,6.08-14.09,6-18.61-.22-37.26-.66-55.84.13C387.08,94.42,378,91.65,370,82c-9.1-11-11.67-10.5-23.54-3.1-3.76,2.34-7.65,2.45-11.25-.25s-3.94-6.51-3-10.5c1.1-4.75,4.49-6.65,8.93-6.71C343,61.42,344.82,61.62,346.68,61.72Z"/><path class="cls-2" d="M0,48.41C11.57,46.2,20.86,49.07,28.94,59c9.3,11.39,20.25,21.29,30.23,32.09A16.71,16.71,0,0,0,72.6,96.84c25-.19,50-.13,75.05-.06,12,0,27.82,16.41,28,28.85.09,6.39.73,12.89-.09,19.17-1.64,12.37,3.09,21.31,11.81,28.95,4.46,3.92,8.22,8.69,12.51,12.83,3.39,3.27,3.12,7.38,3.32,11.55.41,8.61-2,17.53,5.08,25.13,3.08,3.32,1.57,8.7-2.26,11.84-4,3.32-8.53,3.3-12.35-.43-3.52-3.42-4.12-7.67-1.45-12.08,1-1.64,2.44-3,3.24-4.73,1.59-3.37,1.51-7.17.87-10.65-1.25-6.86-5.45-1.3-8.16-1.52-5.18-.41-9.88-2.61-9.78-7.8.22-12.08-9.8-15.3-15.85-24.15-1.47,6.62,1.83,9,4.49,11,7.21,5.43,10.1,12.44,9.12,21.61-.61,5.61.14,10.74,4.37,15.32,3.42,3.7,3.66,8.78-.46,12.66-3.72,3.5-8.25,4.41-12.4,1.07-4.49-3.62-4.52-8.6-1.9-13.49,7.1-13.22,6-23.33-4.54-33.87-4.8-4.78-7.2-9.82-6.75-16.85.49-7.47-.28-15,.22-22.51.52-7.8-2-13.39-7.15-19.21-6-6.83-12.29-9.32-20.95-9.14-23.68.48-47.37,0-71.06.26-5.77.06-10-1.81-14.07-6.11C27.83,100.08,13.85,86,0,71.77V65.1c3.08-.33,4.79,1.86,6.7,3.83C19.37,82,32.27,94.8,44.64,108.17a15.48,15.48,0,0,0,12.58,5.46c24.47-.14,49,.1,73.42-.14,6.82-.07,12.28,1.42,16.82,7.24,3.57,4.58,8.2,8.25,13.31,13.26-2.27-10.91-14-21.7-22.46-21.73-25.53-.07-51.07-.14-76.61,0a16.65,16.65,0,0,1-13.38-5.83C37.22,94.5,25.62,83,14.6,71,10.41,66.37,6,63,0,61.76v-5c6.38-1.45,11.32,1.1,15.69,5.8C26.26,73.91,37.09,85,47.5,96.49c5.23,5.77,10.77,9.08,18.76,9,23.94-.41,47.9,0,71.84-.24,6.9-.07,11.72,2.75,17,7.29,10.23,8.82,14.42,19.33,12.67,32.86-.42,3.27.44,6.76-.15,10-2.26,12.36,3.62,20.65,12.08,27.82,1.82,1.55,3.79,4.32,6.08,2.12,2.82-2.7-.6-4.69-2.13-5.8-13.44-9.74-16.53-23.42-14.57-39.36.48-3.83.09-7.78.06-11.67-.09-13.07-11.16-24.73-23.57-24.75q-37.52-.06-75,0c-4.72,0-8.74-.87-12.25-4.65C48.46,88.49,38,78.56,28.52,67.69,20.68,58.69,12.59,51.48,0,53.41Z"/><path class="cls-2" d="M798.7,21.7c-43.64.07-87.28.24-130.92.09-6.33,0-11.15,1.71-15.47,6.64C646,35.6,639,42.08,632.67,49.19a17.19,17.19,0,0,1-14.06,6.19q-33.93-.36-67.86,0c-6.13.07-11-1.62-14.58-6.73-8.59-12.44-20-16.14-34.5-15.19-19.09,1.24-38.31.52-57.46.18-6.34-.1-11.3,1.56-15.46,6.65-3.28,4-7.14,7.47-10.66,11.26a11.19,11.19,0,0,1-8.49,3.89c-7.33.08-14.52-.72-21,5.36-3.61,3.42-8.82,1.22-11.71-3.29-2.66-4.16-2.49-8.64,1.08-12.15,3.72-3.66,8.17-3.9,12.49-1,12.55,8.34,19.13,8.35,28.73-3.25,8.61-10.4,18.16-14.2,31.28-13.49,21,1.14,42,.78,63,.07,9.29-.32,16.1,3,21.28,10.3,5.58,7.84,12.42,10.93,21.89,10.62,19.41-.65,38.85-.18,58.27-.22,2.87,0,5.83.45,9.17-1.38-2.56-3-5.59-2-8.16-2-19.69-.09-39.39-.28-59.07,0-8.84.15-16.1-2-21.44-9.9-6.15-9-14.32-13.56-25.29-11.78a13.23,13.23,0,0,1-9.91-2.17C485.47,11,470,13,454.73,19.64c-5.1,2.2-9.41,2.27-13-2.07-3.15-3.86-3-8.45.25-12.19,3.63-4.2,8.64-5.58,12.74-1.51,4.45,4.41,9.37,4.6,14.74,4.54,6.65-.08,13.3,0,19.95,0,3.22,0,6.73-.17,9.1,2.31,5.45,5.7,12.1,6.57,19.17,5.8a15.37,15.37,0,0,1,15.26,7c8.44,12.15,19.51,16,33.81,14.89,16.67-1.28,33.51-.54,50.27-.17,6.14.14,10.59-1.93,14.71-6.51,6.91-7.7,14.29-14.94,21.36-22.49A12.76,12.76,0,0,1,663,4.71q67.85.21,135.7.3v5c-3.44.15-6.89.44-10.33.45q-59.79,0-119.57.07c-3.41,0-7.38-1.22-11.42,4.48H798.7Z"/><path class="cls-2" d="M0,1078.29c9.83-.18,19.77-1.38,29.47-.28,12.73,1.45,20.83-5,28.87-13.76q21.73-23.74,44.49-46.45c4.85-4.84,7.18-9.67,7.13-16.63-.22-28.63.06-57.27-.2-85.91-.07-6.65,1.39-12,6.52-16,6.59-5.15,8.34-12,8.08-20.41-.54-17.77-.21-35.58-.14-53.37,0-4.54-.44-8.39-3.91-12.05-4.1-4.32-3.57-9.8.58-14.14,3.78-3.94,8.29-4,12.08-.06,4.17,4.29,4.77,9.79.67,14.14-3.45,3.67-3.92,7.54-3.91,12.07.05,19.18-.38,38.38.22,57.54.27,8.64-2.3,15-8.49,20.26-3,2.6-6.33,5.26-5.52,10.29,12.29-7.31,14.79-11.71,14.8-26,0-19.46.16-38.92-.07-58.38-.07-6,1.54-10.53,5.74-14.76,11.3-11.36,22.18-23.19,33.33-34.73,4.95-5.13,5.77-10.2,1.09-16.08-3.85-4.82-4.89-10.13.3-14.68,3.92-3.44,8.57-3.68,12.33.16,4.59,4.68,4,9.88-.08,14.81-.69.83-1.91,1.74-1.89,2.59.3,15.5-12.67,21.44-20.44,31.08-3.42,4.24-7.28,8.09-10.94,12.12l.09-.09c-9.72,7-14,16-13.19,28.9,1.08,18,.06,36.08.39,54.11.12,6.92-1.41,12.55-6.78,16.78-6,4.76-7.78,11-7.67,18.91.4,27.76,0,55.52.27,83.28.06,6.59-1.8,11.49-6.37,16.16q-28.2,28.81-55.81,58.28c-4,4.3-8.25,6.29-14,6.14-15.67-.38-31.34-.31-47-.42V1085c14.34.24,28.68.67,43,.6,4.56,0,9.31.61,13.33-3.68,18.77-20,37.84-39.77,56.77-59.64,2-2.15,4.2-4.39,1.6-10.49-2.84,4-4.74,7.34-7.3,10-17.55,18.56-35.24,37-52.88,55.45-3.21,3.36-6.34,6.56-11.51,6.45-14.34-.29-28.69-.29-43-.41Z"/><path class="cls-2" d="M71.88,1181.78c-.14-10.81-1.28-21.67.68-32.39.63-3.48-.87-4.1-3.26-3.83-8.63,1-17.82-3-25.71,4.94-3.6,3.62-9.38,2.38-12.78-2.2-3.17-4.26-2.66-9,1-12.86,4-4.27,8.53-3.9,12.94-.49,10.13,7.84,26.2,6.76,35.13-2.54,25.24-26.31,50.36-52.75,75.7-78.94a19.39,19.39,0,0,0,5.76-14.75c-.19-32,0-63.94-.18-95.91,0-6.31,1.55-11.22,6.15-15.43,4.34-4,8.4-8,8.2-15.28-.15-5.13,4.39-7.57,9.1-7.15,5,.45,8.57,3.51,8.79,9.08.23,5.77-2.77,10.24-8.25,10.31-7.18.09-11,4.7-15.13,9.41-1.21,1.38-2.54,3-.75,5.93,5.2-7.18,12.28-9.14,20.33-8.35,2.89.29,4.8-1.86,7-3.46,4.72-3.42,9.73-3.6,13.6,1.17,3.57,4.39,3.25,9.67-.71,13.55s-9.15,3.55-12.95-.45c-5.25-5.53-11.37-4.62-17-2.61-5.81,2.08-5.26,8.28-5.25,13.62,0,30-.11,60.05.1,90.07,0,6.35-2,10.61-6.46,15.12-20.73,21.11-41,42.76-61.37,64.22-7.86,8.26-15.44,16.84-23.68,24.67-4.4,4.18-6,8.59-5.76,14.58.26,6.64-.24,13.31-.41,20Z"/><path class="cls-2" d="M0,772.83l8,0c17,0,29,12.69,28.94,30.52q0,25.83,0,51.65c0,4.15-.34,7.95,4.94,9.92,4.07,1.52,4.69,32.68,1,35.43a7.93,7.93,0,0,1-4.52,1.2c-7.44.12-14.88,0-22.32.09-4.54,0-6.94-1.82-6.86-6.88.13-8,0-16.1.09-24.15,0-1.59.28-4.16,1.18-4.6,7.15-3.5,5.18-10.13,5.25-15.93.15-11.94.06-23.88,0-35.82,0-14.49-2.24-17-15.76-18Z"/><path class="cls-2" d="M546.45,1167l12.64,14.83h-8c-7-7.22-13.92-14.55-21.06-21.62-5.52-5.47-7.93-11.61-7.89-19.88.33-58.69,0-117.38.33-176.07,0-8-2.47-13.89-7.67-19.17-11.45-11.61-23.07-23-34.09-35.07-4.67-5.1-9.53-7.69-16.12-6.74-8.05,1.15-14-2-19.65-8.21-12.18-13.59-25-26.57-37.74-39.61a16.65,16.65,0,0,1-5-12.58q.21-34.22,0-68.43c0-8.31,4.94-14.91,6.75-22.64,1.05-4.49,6.1-4.88,10.26-3.36s6.93,4.56,6.5,9.36c-.48,5.21-3.62,10-8.45,9.45-9.5-1.06-9,4.53-8.94,11.2.28,20.3.47,40.61.3,60.9A20,20,0,0,0,415,854.72c11.51,11.57,22.7,23.48,34,35.31,4.53,4.75,9.46,7.75,16.34,6.51,8-1.44,14.1,2.21,19.69,8.34,11.92,13.08,24.28,25.75,36.75,38.26,5.18,5.19,7.38,10.83,7.35,18.41-.23,58.69-.14,117.38-.1,176.07,0,4.12-.69,8.37,1.2,12.31Z"/><path class="cls-2" d="M396.16,1181.78c-.1-24.46-.12-48.91-.37-73.37-.05-5.16,3.16-8.05,5.9-11.33s5.95-6.58,8.95-9.86l-1.55-1.55c-6.37,6.87-13.52,13.16-18.85,20.83-3.65,5.24-3.15,12,2.11,17.38,3.2,3.27,3.19,7.54,1,11.57-2,3.85-5.48,5.13-9.5,4.61s-6.62-3.31-7.72-7.39c-.34-1.29-.71-3.07-.15-4,7.23-12.56,5.87-29.81,20.3-38.61,7.35-4.48,9.38-12.35,9.13-21.59-.61-22.78-.13-45.59-.24-68.38-.05-10.79-9.21-20.89-19.54-22-5.46-.56-9.06-3.28-9.27-9.36-.19-5.37,2.1-9.26,7.41-10.24,5.59-1,9.33,2,11.07,7.25,3.77,11.43,4.79,13.14,15.83,22.34,1.58-7,1.6-13.14-3.33-18.44-3.16-3.38-6-7.17-9.62-10-6.19-4.82-9.12-10.59-7.33-18.68.74-3.36-1.24-5.69-3.1-8.16-3.63-4.81-3.83-10,.62-14.17,4-3.75,9-3.86,12.91.41,4.21,4.55,3.73,9.23-.3,14-6.15,7.32-6.55,15,.89,20.91,14,11.16,17.21,25,16.31,42.75-1.42,28-.5,56.13-.13,84.2.09,6.75-1.63,12-6.67,16-7.67,6.08-10,14-9.74,24,.51,20.27-.12,40.56-.28,60.84Z"/><path class="cls-2" d="M0,726.09q53.49,0,107-.05c5.12,0,9.75-.29,14-4.27,4.1-3.81,9-3.24,12.74,1.29a9.65,9.65,0,0,1,0,13c-3.68,4.54-8.78,4.79-12.8,1.05-4.28-4-8.9-4.28-14-4.25-16.23.09-32.46,0-48.69.09-2.21,0-5.49-1.33-6.38,1.59-.76,2.45,2.17,4.15,3.63,6A8.74,8.74,0,0,0,63.3,744c8.71-.59,17.82,2.58,25.65-5.19,3.53-3.5,8.77-1.45,12.08,2.53s2.8,8.3-.39,12.09c-3.4,4-7.57,5-12.15,2.1-1.55-1-2.95-2.24-5-3.8,4.88,8.45,18.46,10.21,26.34,4.06,5.86-4.58,12.5-4.3,15.23.94,2.4,4.6,2.08,9.32-1.82,12.93s-8.58,3.77-12.19-.16a12.77,12.77,0,0,0-10.47-4.64c-7.85.13-15.43.83-22.46-5.55-4.2-3.81-11.35-1.29-17.14-1.25-5.16,0-9.44-1.22-12.65-5.55-3.79-5.12-8.84-6.33-14.83-6.2-11.16.26-22.34-.11-33.51-.23Z"/><path class="cls-2" d="M281.14,1181.78q-.17-60-.33-120.08c-.05-27.25.16-54.49-.13-81.73a20.86,20.86,0,0,1,6.51-16.11c14.31-14.52,28.21-29.49,42.44-44.1a17.28,17.28,0,0,0,5.46-13.17c-.49-40.3-.7-80.64,0-120.89.28-15.89-5.76-25.11-15.64-33.68-8.68-7.53-13.31-16.11-11.55-28.13a15.53,15.53,0,0,0-4-13.65c-3.71-4-3.5-9.46.67-13.41,3.81-3.62,8.55-3.57,12.37,0,4.23,3.92,3.89,8.85.95,13.58-7.16,11.49-6.16,24,2.82,33.73,2.95,3.2,5.59,7,9.09,9.29,10.56,7,11.22,17.3,11.1,29-.46,41.7-.32,83.4-.07,125.1a21.72,21.72,0,0,1-6.85,16.8c-13.8,13.87-27,28.38-40.85,42.22-5.31,5.3-6.78,11-6.76,18.5.21,64.49.05,129,0,193.47a30.74,30.74,0,0,1-.37,3.31Z"/><path class="cls-2" d="M798.7,181.94c-3.72,0-7.48.37-11.16-.08-14.79-1.8-27.9.56-37,14.59-2.1,3.23-5.63,3.88-9.26,3.85-8-.05-15.95.06-23.92,0-6.11,0-11.91-.09-17.21,4.52-4.06,3.53-8.66,1.63-12-2.4s-2.95-8.14.22-12.08c3.44-4.28,8.2-5.16,12.16-2.19,13.63,10.22,28.72,3.62,43.1,4.65,4.15.3,6-5,9.05-7.63,5-4.32,9.07-9.07,16.26-11,6.06-1.65,0-12.71,6.51-16.85a4.6,4.6,0,0,0,1.83-3.5c-.81-8.38,4.05-13.83,8.76-19.5-6.13,5.45-12.84,10.18-14.75,19.26-1.14,5.42-5.09,7.67-10.26,6.88s-8.18-4.34-8-9.72,3.44-8.44,8.63-9.2c13.68-2,19.37-8.68,19.39-22.77,0-13.89-.15-27.77.07-41.66.15-10,7.7-17.09,17.55-17V73.44c-3.62,3-4.77,7-4.71,11.78.17,13.34-.16,26.68.14,40,.16,7-.94,13-6.39,17.86a10.22,10.22,0,0,0-1.43,14.29c4.05,5.45,5.46,10.61,1.06,17.23l11.33.64Z"/><path class="cls-2" d="M774.74,1181.78c-1.4-6.85,1.89-11.47,6.3-16,7.06-7.3,6.36-15.54-1.31-22.09-1.19-1-2.3-2.8-4-1.38-1.36,1.15-1.23,3.19-.58,4.67.87,2,2.46,3.6,3.39,5.56,2.35,5,2.23,9.93-2.07,13.59-4.07,3.48-8.61,3-12.15-1s-4.22-9.57-.33-13.55,4-8.08,4-12.85c0-18.9-.18-37.79.07-56.69.09-6.25-1.12-11.2-6.17-15.22-4.19-3.34-7.75-7.58-11.37-11.63-2-2.2-4.54-4.61-5.05-7.3-1.37-7.26-2.15-14.44-5.91-21.16-2-3.59-.35-8.38,3.7-10.76s8.45-1.73,11.73,1.77c3.39,3.65,3.18,8.09.7,12.28-6.9,11.71-6.73,13.79,2.29,23.29,3.19,3.35,6.2,6.92,9.64,10,2.85,2.51,5.34,9,8.52,6.84,4.94-3.36,11.21-7.58,10.88-15.36-.4-9.33,2.88-19.24-5.08-27.5-3.19-3.31-1.94-8.64,1.69-12,5.27-4.84,10.3-2.75,15,1.34v11.69c-6.21,4-5.07,10.57-4.78,16.51.48,10,.05,19.43-8.94,25.9-3.38,2.44-3.69,6.44-3.67,10.49.07,15.54.17,31.09-.06,46.63a18.18,18.18,0,0,0,5.43,14c8.53,8.78,8.37,18.76-.23,27.38-3.58,3.59-6.26,7.43-6.92,12.63Z"/><path class="cls-2" d="M750.78,1181.78c-7.88-7.34-8.26-9.78-2.23-18.76,1.84-2.74,2.15-5.6,2.15-8.67,0-22.25-.09-44.49.06-66.73,0-5.16-1.42-9.33-5.26-12.4-14.44-11.54-21.16-25.94-17.82-45.45,2.11-12.4-2.77-22.13-12-31.29C688.27,971.34,662,943,635.32,915c-4.26-4.48-8.1-6.95-13.46-1.42-4.49,4.63-9.82,4.49-14.11-.32a8.78,8.78,0,0,1,0-12.17c4.27-4.84,8.89-3.61,14.36-.81,36.07,18.48,56.36,55.07,85.83,81.09,7.07,6.25,13.07,13.81,19.76,20.55,4.07,4.11,6.54,8.65,5.92,14.73-.17,1.65.17,3.37-.07,5-3.14,21.4,2,39.29,19.77,52.06,4,2.9,4,7.51,4,12q0,33.36,0,66.73c0,3.87.06,7.55,2.46,11.08,5.68,8.35,5.15,10.91-2.53,18.2Z"/><path class="cls-2" d="M202.85,1085c6.14-4.16,8.45-9.89,8.16-17.64-.49-13-.19-26.1-.1-39.15.08-11.74,14-28.7,25.13-30.33,3.24-.48,5.14-2.33,7.38-4.31,4.15-3.66,8.71-4.31,12.87-.07,3.7,3.77,4.31,8.49,1.23,12.83-3.32,4.67-8,5.06-12.86,2.53-11.26-5.91-26.82,4-27.1,17.7-.29,14.43-.34,28.88,0,43.32.17,6.65-1.27,12.41-6.37,16.15-15.36,11.25-20.1,26.54-17.71,45.42,1,7.64.15,15.53.16,23.3a15.83,15.83,0,0,0,2.07,8.7c5.5,9,5.15,10.84-2.45,18.3h-8c-4.23-5.13-7.73-10.71-2.26-16.87,3.48-3.91,4-8.14,4-13-.1-7.5.46-15-.13-22.48-1.35-17.28.31-33.14,15.58-43.87a2.39,2.39,0,0,0,.46-.68Z"/><path class="cls-2" d="M0,587.55c20,0,39.91.11,59.86-.19,5.83-.09,10.14,2,14,6.29,6.21,6.86,12.89,13.26,19.07,20.16,3.58,4,7.63,5.41,12.76,5.39,27.67-.15,55.34-.11,83,0,4.4,0,8.15-.74,11.7-4,4.06-3.7,8.89-3.85,12.84.59,3.54,4,3.74,8.73.66,13-3.56,4.9-8.54,4.75-12.72,1.33-4.38-3.59-9-4.09-14.17-4.07-27.67.1-55.34-.06-83,.13a16.9,16.9,0,0,1-14-6.27c-5.9-6.77-12.73-12.65-18.61-19.45-4.16-4.81-8.8-6.23-14.77-6.16-18.89.24-37.78,0-56.67,0Z"/><path class="cls-2" d="M723.89,874.83c-11.64-16-26.23-29.06-39.91-43-2.66-2.73-6.65-1.59-9.82-3-4.35-2-7-5.2-6.15-10.39.83-4.77,3.45-8.2,8.38-8.73s9.22,2.09,9.57,6.83c.88,12.22,9.88,17.71,17,24.91,9.68,9.82,19.47,19.53,29,29.53a16.17,16.17,0,0,0,12.71,5.46c18-.17,36-.06,54.06-.06v10c-15.11,0-30.25-.64-45.31.2C741.54,887.2,731.36,885.27,723.89,874.83Z"/><path class="cls-2" d="M0,604.24c10.9-.2,21.79-.34,32.68-.65,3.56-.1,6,1.72,8.3,4.18,6.54,6.92,13.34,13.59,19.7,20.68,4,4.42,8.41,6.06,14.15,6,27.12-.2,54.26-.12,81.38,0,4.9,0,9.29-.59,13.44-3.92,4.33-3.47,9.31-3,12.89,1.44,3.2,4,3.59,8.65-.12,12.85-4.19,4.76-9.12,4.93-13.38.73-3.95-3.9-8.31-4.26-13.19-4.25-27.92.08-55.85-.06-83.78.11-5.71,0-10-1.48-13.93-6.2-5.9-7.13-12.63-13.5-19-20.25a15.59,15.59,0,0,0-12.08-5.31c-9,0-18.07-.23-27.11-.38Z"/><path class="cls-2" d="M798.7,567.52c-6,7.24-6.76,15.77-6.42,24.93.45,11.94,0,23.91.17,35.86.1,5.4-1.35,9.63-5.38,13.18a58.87,58.87,0,0,0-8.22,9c-3.92,5.25-8.65,7.88-15.14,7.28-5.35-.49-10.24.11-14.72,4.42-3.87,3.72-8.69,2.19-12-1.83s-3.16-8.81.34-12.81,8.43-5.1,12.13-1.43c6.49,6.43,14.59,7.05,20.42,2.78,7.55-5.52,16.7-11.31,16-24-.6-11.65-.15-23.35-.11-35,0-6.35.2-12.27-4.67-17.72-3.74-4.18-3-10.25,1.83-14,4.52-3.52,9.07-2.21,12.82,2,1.07,1.21,2,2.61,3,3.92Z"/><path class="cls-2" d="M0,619.27c20.52-3.55,37.46,2.05,49.7,20.62,5.9,9,14.28,11.87,24.81,11.11,12.69-.91,25.49-.18,38.25-.23,6.79,0,13.51.92,19.33-5,3.21-3.25,8.26-2.49,11.35,1.64s3.47,9,.14,13.05-8.24,5.28-12.06,1.6c-4.74-4.58-10-4.38-15.59-4.37-16.48,0-33-.19-49.43.09-5.73.09-10.42-1.31-14.08-6-1-1.29-2.4-2.26-3.33-3.59C36.89,630.72,21.16,621.8,0,625.94Z"/><path class="cls-2" d="M798.7,876.32c-18,0-36-.11-54.06.06a16.17,16.17,0,0,1-12.71-5.46c-9.52-10-19.31-19.71-29-29.53-6.28-7.77-4-19.07-10.54-27-2.64-3.21-.59-8.06,3.11-10.82,3.93-2.95,8-2.92,11.69.36s4.22,7.53,2.2,12.05c-6.57,14.69-6.53,14.62,4.48,25.73,6.86,6.92,13.73,13.86,20.15,21.21a18.33,18.33,0,0,0,15.36,6.77c16.43-.31,32.87,0,49.31,0Z"/><path class="cls-2" d="M798.7,53.41c-20.75.07-41.5.35-62.24.08-6.37-.08-11.5,1.54-15.35,6.84-4.74,6.56-10.85,9.06-18.74,8.41-6.78-.56-13.49-.88-19.42,4.84-3.72,3.58-8.66,1.9-11.83-2.51-2.93-4.08-2.73-8.38.4-12.24,3.43-4.24,8.08-5.17,12.06-1.77,4.23,3.61,8.58,4.54,13.82,5,8.9.71,16.16-1.51,21.86-8.9,4-5.17,9.31-6.56,15.6-6.48,21.28.27,42.56.1,63.84.1Z"/><path class="cls-2" d="M723.89,874.83c7.47,10.44,17.65,12.37,29.5,11.71,15.06-.84,30.2-.2,45.31-.2v5c-21.53.2-43.05.35-64.58.65-3.65,0-5.93-2.11-8.2-4.44-8.35-8.56-16.61-17.22-24.95-25.78-6.44-6.6-9.54-6.86-16.21-.92-4.62,4.11-9.15,4.48-13.45,0-3.95-4.08-4.48-9-.51-13.34,4.16-4.55,8.93-4.17,13.59-.46,1.47,1.16,3.09,3.33,4.47,3.2,14.28-1.43,19.66,11.35,28.22,19C719.29,871.23,720.92,873.89,723.89,874.83Z"/><path class="cls-2" d="M600.62,0c.16,5.82.22,11.35,4.67,16.2,3.66,4,2.17,9.05-1.5,12.65-3.49,3.43-8.11,4-11.6.58s-5.45-4.57-9.19-.18c-3.29,3.88-7.92,2.83-11.48-.47-4-3.67-4.72-9-1.36-12.69,4.43-4.86,4.59-10.31,4.9-16.09Z"/><path class="cls-2" d="M0,30.05c14.79-2.55,25.73,3.39,35.17,15.32C43.25,55.59,52.88,64.48,62,73.74c6.1,6.18,13.09,6.68,20,1.49,5-3.71,9.84-4.93,14.13.28,3.23,3.93,3.49,8.91,0,13-4.39,5.11-9.38,4.32-14.06.17-1.87-1.65-3.73-3.54-6.25-3.13C63.62,87.49,57.2,78.39,50,70.82,42.11,62.58,33.86,54.67,26.6,45.89S10,36,0,36.72Z"/><path class="cls-2" d="M798.7,766.15c-3.39.17-6.71-.22-9.85,2.21-7.25,5.61-12.14,5.47-15.77.2s-1.93-10.49,5.47-16.4c-3.25-1.93-6.51-3.81-7.08-8s.07-7.85,3.6-10.3,7.72-3,11.08.14c3.75,3.49,7.91,4.17,12.55,3.77Z"/><path class="cls-2" d="M346.62,61.79c-3.49-5.45-8.56-7.31-14.49-6.28C314.57,58.56,301.08,52.4,290,37.75c-6.68-8.83-15.28-16.1-23.19-23.89C262.73,9.85,263,5,263.57,0H270c-.62,5.12,1.33,9,4.83,12.54,10.1,10.26,20.1,20.62,29.85,31.24,3.78,4.11,7.77,6.24,13.3,5.88,5.82-.37,11.69-.07,17.53-.07,3,0,5.75-.25,7.94-2.91,3.55-4.32,7.93-5.62,12.75-2.43,3.7,2.45,5.48,6.06,4,10.72-1.9,6.17-6.44,7.59-12,7Z"/><path class="cls-2" d="M798.7,807.88c-4.23.09-8.09.42-11.62,3.88-4.17,4.09-9.25,4.12-13.35-.59-3.73-4.29-4-9.18.19-13.24,2.94-2.87,2.36-4.47-.07-7.29-3.58-4.14-4.05-9.29-.11-13.41s9.36-4.7,13.42-.24c3.42,3.76,7.47,3.51,11.54,4.19Z"/><path class="cls-2" d="M0,148.56c6.53-.36,13,0,18.53-5.35,3.41-3.29,8.28-2.07,11.38,1.79s3.66,8.59.38,12.21-3,5.8,0,9.46c3.37,4.06,2.47,9-1,12.86-3.14,3.54-7.9,4-10.84,1.05-5.52-5.56-12-5-18.52-5.32v-6.67c5.66-.45,11.67,1.62,16.66-3.38,2.47-2.47,2.57-3.53.29-6.51-4.72-6.2-11.24-3.76-16.95-5.14Z"/><path class="cls-2" d="M798.7,195.29c-3.72,0-7.47.21-11.16-.18-14.74-1.58-27.63.73-37.13,14.63-4.39,6.42-12.37,3.41-18.78,3.47-4.36,0-8.16-.28-11.72,3.29s-7.47,2.33-10.69-1c-2.88-3-2.82-6.58-.73-9.91,2.57-4.08,6.54-5.26,10.42-2.76,4.52,2.92,9.17,3.65,14.32,4,8,.54,14.68-1.17,19.58-8.25,5.82-8.42,13.66-11.42,23.57-10.34,7.37.79,14.87.27,22.32.34Z"/><path class="cls-2" d="M798.7,1008.19c-9,.7-18.59-1.3-25.1,8.57-3.5,5.31-5,9.68-.36,14.67,4.4,4.74,5,10,.75,14.75-3.4,3.78-8.28,4.48-12.22.93-4.76-4.29-4.66-9.85-1-14.89a17.36,17.36,0,0,0,3.46-10.64c.13-6.73,13.34-19.44,20.13-19.84,4.76-.29,9.54-.17,14.32-.23Z"/><path class="cls-2" d="M0,190.29c6.54-.29,13,.17,18.53-5.27,3.35-3.27,8.26-2.08,11.37,1.82,3.26,4.1,3.3,8.78,0,13-3.09,3.95-7.72,5.29-11.31,2.06C13,196.75,6.67,196.62,0,197Z"/><path class="cls-2" d="M0,126.86c6.58,0,12.88.15,18.63-4.76,3.92-3.36,8.76-1.69,11.81,2.63,2.85,4,2.43,8.41-.73,12.15s-8,5.14-11.3,1.82c-5.54-5.52-11.88-5.07-18.41-5.17Z"/><path class="cls-2" d="M621.39,0c0,5.77-.28,11.24,4.09,16.2,3.72,4.22,2.57,9.46-1.74,13.11-4.08,3.44-8.52,2.85-12.26-.68s-4.64-8.83-1.09-12.54C615,11.28,614.55,5.68,615,0Z"/><path class="cls-2" d="M560.69,0c0,5.82.22,11.28,4.39,16.21,3.7,4.39,2.47,9.48-1.86,13.1-4.09,3.42-8.52,2.89-12.27-.68-3.9-3.72-4.53-8.9-1-12.56,4.7-4.82,4.33-10.31,4.31-16.07Z"/><path class="cls-2" d="M453.63,647.69c6.4-2.78,13.12-4.59,14.78-13.7.69-3.76,5.39-4.94,9.5-3.82,4.36,1.19,6.76,4,7.25,8.76,1.19,11.82,16.85,26.91,28,26.92,37.54.07,75.07,0,112.61.1,5.12,0,8.86-1.9,12.89-5.18,13.5-11,19.72-24.74,17.48-42.73-.71-5.74.05-11.67-.2-17.5-.12-3.08,1.08-8.33-2.52-8.45-4-.13-2.89,5.1-2.94,8.18-.17,10-.07,20-.07,30,0,19-11.72,31.11-30.06,31.11-31.95,0-63.89-.13-95.83.13-6.37.05-11.17-1.81-15.47-6.74-5.9-6.79-12.36-13-18.55-19.55-4.44-4.67-8.2-9.57-16.05-8.49-4.75.66-8.15-3.89-8.12-9.42,0-5,2.65-8.52,7.37-9.59,5.07-1.15,9.35,1,10.91,6.06,5.56,18.16,21.44,26.77,32.93,39.41,2.45,2.69,6.43,2.28,9.91,2.28,31.15,0,62.3.08,93.44,0,13.08-.06,22.83-10.5,22.9-24,0-8.62-.06-17.24,0-25.87.06-5.88.21-11.46-5-15.81-3.23-2.7-3-7-.92-10.74,2.28-4.09,6-5.42,10.29-4.5,2.26.49,4.37,1.74,7.16,2.89-.16-12.34,3.71-24.42-4.64-35.54-2.85-3.8-1.32-9.4,3-12.49s8.67-2.18,12.13,1.94,3.87,9.11.11,12.76c-4.11,4-4.33,8.51-4.32,13.59.06,26.43-.12,52.86.12,79.28.07,6.65-1.23,12.07-6.77,15.81a2.08,2.08,0,0,0-.6.54c-11.08,17.76-27.16,20.59-46.25,19.77-32.16-1.4-64.41-.52-96.62-.26-6.66.06-11.76-1.76-16.09-7.15-3.57-4.46-7.8-8.36-11.82-12.41-2.29-2.3-4.66-4.76-8.76-2.74,7.93,8.61,15.64,17.17,23.59,25.49,2,2.07,5,1.54,7.67,1.54q63.49,0,127,.08c4.59,0,7.77-2.08,11.37-4.85,18.69-14.41,26.27-32.69,23.56-57.37-2.11-19.22-.21-38.9-.51-58.36-.14-8.82,1.35-16.53,8.27-22.36,3.23-2.72,4.56-5.21-.51-7.9-4-2.1-5.06-6.31-4-10.8,1-4.29,3.87-7,7.95-7,5.77,0,9.2-3.64,12.77-7.44,8.21-8.73,16.4-17.47,24.76-26,6.83-7,17.41-7.63,23.17.23,8,10.92,18.41,10.5,29.42,10,3.25-.15,5.23-2.33,7.6-4.09,4.9-3.62,9.71-3,13.5,1.7,3.14,3.89,2.86,8.49-.36,12.2-4,4.58-9.16,5.43-13.38.95-5.46-5.78-12-3.81-18.08-3.68-7.64.16-13.56-1.61-19-7.92-9-10.38-12.53-10.06-22.28-.24-8,8.09-15.88,16.4-23.81,24.62-1.89,2-3.87,3.91-2.58,7.83,4.36-1.24,6.56-5.22,9.43-8.06,6.17-6.12,11.89-12.75,18.14-18.78,6.42-6.2,14.29-6.41,19.31-1.12,5.29,5.58,5,14.13-1.31,20.85q-18.14,19.39-36.7,38.36a18,18,0,0,0-5.25,12.48c-1.54,29.47-.83,58.95-.42,88.41.09,6.57-1.57,12-6,16.56q-15.87,16.46-31.6,33.06a18.46,18.46,0,0,1-14.31,6q-72.67-.12-145.34,0c-6,0-10.73-2.24-14.87-6.68-8.54-9.17-17.28-18.14-25.92-27.2-8-8.43-8.55-13.34-2.44-23.45Z"/><path class="cls-2" d="M340.72,165.26c12.9-7,15-15,7.54-25.8-3.31-4.8-3.37-9.53.65-13.51s8.92-4,13-.12,4.31,8.82.8,13.47c-1.84,2.44-4.19,4.88-3.68,8,1.56,9.71-4.05,15.35-9.88,21.29-14.09,14.37-27.82,29.12-42,43.43A16.31,16.31,0,0,0,302,224.5q.1,94.71,0,189.42a17.43,17.43,0,0,0,5.43,13.21c8.41,8.52,16.77,17.12,24.68,26.13,4.89,5.58,10.34,8.88,17.51,7.49,21.9-4.25,30.06,14.84,42.18,27.06,1.37,1.38,1.25,4.73,1.27,7.17.06,6.65-.22,12.92,4.79,18.6,3.39,3.85,1.89,9.21-2.09,12.58-3.73,3.16-8,3-11.73-.29-4.07-3.56-4.5-7.89-1.91-12.69,7.41-13.71,6.58-20.71-3.68-31.54-14.56-15.38-17.17-16.27-39.47-13.05,2.44,5.26,5.79,8.23,11.39,8.81a9.11,9.11,0,0,1,8.42,7.68c1,4.83-1.21,8.36-5.05,10.29-4.83,2.43-4.05,4.55-.88,7.89,3.34,3.53,6.76,5.78,11.81,5.68s8.61,3.09,9,8.63c.4,5.34-2,9.24-7.2,10.4s-10.05-1.35-10.71-6.24c-1.48-11-9.66-16.38-16-23.12-20.06-21.49-40.53-42.56-61-63.61a13.62,13.62,0,0,1-4.13-10.29q.06-103.47,0-206.95c0-5.15,1.39-9.4,5.36-12.34,19.94-14.71,27-34.48,23.68-59.68-1.7-13.11-.45-26.66-.24-40a17.36,17.36,0,0,0-5.15-13.34Q270.17,63.4,242.4,34A17,17,0,0,0,229,28.26q-67.87.19-135.76.06c-4.09,0-7.75.57-11.11,3.52-4.61,4-9.52,3.71-13.29-1.31-3.14-4.2-3.12-9.17.51-13,4.21-4.38,9.41-4.1,13.56.13,3.52,3.59,7.17,4.23,11.87,3.12C93.58,18.77,92.24,17,91.58,15c-1.45-4.38-.4-8.29,3.14-11.18s8-3.61,11-.29c4.51,5.12,9.84,4.7,15.4,4.7,37,0,74,.12,111-.12A21.17,21.17,0,0,1,249,15.34q33.84,36,68.31,71.4c4.88,5,7.74,10.22,7.09,17.59-.49,5.51,0,11.11-.11,16.68-.08,6.14,0,11.89,4.32,17.16,3.24,4,2.56,9.14-1.47,12.72-3.86,3.42-8.35,3.86-12.36.2s-5.06-8.83-1.66-12.67c5.27-5.94,3.77-12.79,4.72-19.52,2.26-16.11-3.48-27.62-14.9-38.5-19.64-18.72-37.94-39-56.63-58.79-4.22-4.47-8.75-6.57-14.82-6.54q-57.09.25-114.2,0c-4.79,0-8.92.8-12.06,6.27h20c34.34,0,68.68.16,103-.13,7.17-.07,12.44,2,17.56,7.48C265,49.29,284.43,69.46,304,89.5c4.37,4.48,6.09,9.21,6,15.49q-.34,34.64,0,69.26c.05,6-1.18,11-5.8,14.71-.42.34-.7.87-1.13,1.18-18.6,13.54-23,32-22.38,55.28,1.6,57.25.65,114.58.37,171.88,0,7.91,2.2,13.57,7.63,19,15.35,15.42,30.17,31.41,45.37,47,1.44,1.48,2.88,6.13,6,2.48,2.18-2.56.06-4.92-2-7.08-15.5-16.44-30.85-33-46.34-49.47-3.15-3.33-4.88-6.71-4.86-11.69q.29-96,0-191.93c0-7.89,2.1-13.64,7.58-19,11.81-11.64,23-24,34.64-35.78,4.09-4.17,6.16-8.76,5.92-14.79-.28-7.22-.13-14.46-.05-21.69.05-4-.73-7.48-3.42-10.71-4.18-5-3.76-10.36,1.17-14.62,4.14-3.58,8.7-2.78,12.24,1,4.59,4.91,3.75,10.1-.85,14.58-2.06,2-3.48,4.08-3.47,7.14C340.75,142.54,340.72,153.36,340.72,165.26Zm-45.78,53-1.25.07V420.88h1.25Z"/><path class="cls-2" d="M495.79,491.48c-15.52,0-29.8-.05-44.07.07a6.34,6.34,0,0,0-4.34,1.76c-7.77,9-19.65,14.35-21.74,28.39-.84,5.63-5.63,8.08-11,7-4.73-1-7.43-4.55-7.2-9.61.24-5.22,3-10,8.1-9.54,6.89.68,10.69-3.26,13.9-7.84,9.58-13.68,22.12-18.93,38-16.35,2.85.47,5.84,0,8.77.07,14.34.26,29-2.51,41.88,7.76,8.83,7,16.39-.13,23.93-4.33a3.48,3.48,0,0,0,1.17-1.12c9.14-14.15,22.29-16.63,37.57-15.54,14.83,1.05,29.78.24,44.68.22,2.39,0,5.54.81,7.05-.44,8.29-6.88,18.27-8.89,27.91-12.2,3.22-1.1,6.15-2.9,9.69-2.8,5.59.16,10.72.1,15.27-4.88,3.43-3.74,8.58-3,12.16,1,3.28,3.66,3.44,8.25.83,12.32-3,4.65-7.46,4.72-12.12,3-2.51-.93-3.74-4.05-6.87-4.32-1.32,2.1.91,2.69,1.6,3.8,3,4.85,3,9.72-.94,13.68-4.06,4.13-9.07,3.62-12.93-.27-5.28-5.31-11.35-3.74-17.3-3.08a5.19,5.19,0,0,0-4.88,5.34c3.82,1.07,4.72-2.62,7-3.61,4.61-2,9-2.22,12.21,2.3,3.11,4.33,2.81,9.09-.73,13s-8.47,4.57-12.13.7c-4.3-4.54-9.16-4.85-14.59-4.81-16.23.12-32.46,0-48.69.1-6.31,0-11.64,1.2-8.55,10.18.48,1.41.42,3.76-.4,4.79-3.5,4.39-1.21,8.17-.7,12.91,1.19,10.9,8.18,16.46,14.62,22.57s8.56,12.58,8.19,21.33c-.58,14.15-.17,28.35-.14,42.53,0,6.86-.84,13.68,4.66,19.47,3,3.13,2.34,7.92-.54,11.51A8.21,8.21,0,0,1,594.91,639c-3.79-1.74-7.39-.33-10.64-.63-9.28-.86-18.66,2.1-27.67-.86-2.23-.73-3.84-1.4-5.78.16a4.36,4.36,0,0,1-2.13,1.09c-8.16.58-16.16-1.28-24.6.51-5.63,1.19-9-10.26-4.34-15.73,3.4-4,4.07-8.06,4-12.9-.09-16.69-.15-33.37,0-50.05.06-5.12-1.26-9.23-5.08-12.46-7.35-6.21-11.71-16.27-23.37-16.87-5.63-.3-7.55-8.28-4.62-14.23,2.84-5.77,1.18-10.1-5-10.66a101.9,101.9,0,0,0-22.29.05c-6.21.83-10.25,5.58-11.09,12.41-.81,6.47-3.92,10.57-10.38,10-5.45-.46-9-4.23-8.64-10.05.39-6.63,4.68-9.7,10.88-9.52,2.49.08,5,.31,6.57-1.95,6.08-8.82,14.91-8.19,23.79-8.2C481.77,499.11,489.8,501.36,495.79,491.48Zm72.44,42.64c2.49,2.79,4.21,5.31,6.46,7.12,6.94,5.61,9.14,12.7,8.8,21.83-.62,16.67-.14,33.37-.18,50.06,0,4.79.65,9.85,6.15,9.73s5.93-5.22,5.91-10c-.07-17.52,0-35,0-52.56,0-3.7-.32-7.28-3.06-10-5-5-10-10-15.07-14.9C575,533.25,572.51,531.67,568.23,534.12ZM529,532.81c4.19,3.78,7.22,6.89,10.6,9.5,6.58,5.09,8.82,11.6,8.52,20.17-.57,15.82-.21,31.67-.14,47.51,0,5.41-1.17,13.3,5.76,13.32,6.41,0,5.2-7.74,5.24-12.85.11-12.22-1-24.56.29-36.65,1.59-15.4-3.34-26.71-14.76-36C540.38,534.39,536.62,531.6,529,532.81Zm-14.16.65c.87,3.48,3.09,5.23,5.1,6.84,8.29,6.63,11.53,15,10.59,26-.84,9.9-.19,19.93-.17,29.91,0,6.65,0,13.3.11,19.95,0,3.74,1.88,7.19,5.22,7.23s5.24-3.34,5.54-7c.16-1.93.15-3.87.15-5.81,0-11.92-1.08-24,.27-35.72,1.88-16.38-3.56-28.42-15.83-37.85a21.45,21.45,0,0,1-1.75-1.69C521.56,532.83,518.73,531.87,514.86,533.46Zm50.8,51.36h0c0,9.72.07,19.44,0,29.16,0,4.58,1.06,9.48,5.58,9.54,4.84.06,5.42-5.18,5.43-9.54q0-27.91,0-55.82c0-2.5.1-5.19-1.74-7.09-5.47-5.66-11-11.26-16.66-16.72-1.82-1.75-4.71-3-6.35-.57-1.39,2,1,4.4,2.6,5.42,11.32,7.28,12,18.54,11.21,30.63C565.38,574.8,565.66,579.82,565.66,584.82Z"/><path class="cls-2" d="M150.11,809.6c3.9-1,6.16-4.24,8.77-7,11.89-12.35,23.66-24.84,35.62-37.11,7.24-7.44,14.32-7.91,20.33-1.79s5.31,13.55-1.87,21.16c-11.58,12.27-23.19,24.53-35,36.55a18.26,18.26,0,0,0-5.57,14c.2,19.47-.67,39,.32,58.39.68,13.33-3.76,23.31-13.12,31.31-4.62,4-6.11,8.54-6.08,14.52.14,30.87-.19,61.74.2,92.61.12,9.3-2.37,16.45-8.77,23-22.46,22.93-44.59,46.2-66.77,69.4a16.88,16.88,0,0,1-12.9,5.48c-15.17-.05-30.34.11-45.51-.07-9.28-.11-15.25-5.41-15.54-13.2-.31-8.29,5.63-14.18,15.15-14.49,12-.39,23.94-.6,35.92-.54a16.19,16.19,0,0,0,12.79-5.37q26.64-28.21,53.63-56.06a19.66,19.66,0,0,0,5.78-14.83c-.16-31.15.12-62.3-.2-93.44-.09-8.68,1.58-16,8.39-21.33,8-6.25,10.3-14.4,9.86-24.72-.73-17.21,0-34.48-.28-51.72-.15-8.78.58-17.17,5-24.87Z"/><path class="cls-2" d="M572.17,870.68c-4.76,16.43,4.71,29.49,17.89,42.72,35.3,35.42,69.39,72.15,104.12,108.2,4.88,5.07,7.3,10.61,7.23,17.74-.15,15,0,30-.06,45.05-.08,11.86-4.73,17.86-13.41,17.72-8.33-.15-12.85-5.89-13.11-17.15-.28-11.93-.59-23.87-.31-35.79a19,19,0,0,0-5.74-14.75Q610,973.23,551.49,911.79A19,19,0,0,1,546,897.62c.13-12.79,0-25.58,0-38.37,0-15.43-12.11-27.89-27.09-27.91-12,0-24-.15-35.92.07a19.24,19.24,0,0,1-15.11-6.18c-9.57-10.05-19.31-19.94-28.72-30.15-7-7.56-7.35-15.6-1.58-21.34,6-6,12.6-5.39,20.25,2.24,7.32,7.28,14.57,14.65,21.54,22.3a16.32,16.32,0,0,0,13.4,5.81c11.71-.28,23.42-.08,35.13-.07,2.13,0,4.27-.07,6.38.09,10.72.81,37.58,30.09,37.82,41.33C572.29,852.66,572.17,859.9,572.17,870.68Z"/><path class="cls-2" d="M434.37,383.36c-4.14,5.62-3.15,11.7-2.95,17.51.35,10.28-2.47,21,4.54,30.5,2.46,3.36.65,8.31-3,11-3.85,2.9-8.2,2.86-11.82-.36s-4.08-7.94-1.87-12.19c8.21-15.78,1.77-32.29,4.1-49.19-5.32,2.05-4.52,5.48-4.6,8.29-.18,6.11-.09,12.23-.09,18.35,0,3.4-.16,6.94-2.64,9.36-13.37,13.06-10.61,28.06-4.94,43.39,1.34,3.65,1.57,7-.66,10.28a8.85,8.85,0,0,1-9.1,3.9c-6.34-.9-11-8.72-7-13.57,6.47-7.91,4.73-16.7,4.6-25.3-.11-7.94.84-14.83,7.44-19.88,3.21-2.46,4.33-6.16,4.2-10.33-.11-3.61.37-7.28-.08-10.83-1.32-10.27,1.58-18.54,9.72-24.69,6.18-4.67,7.77-11,7.65-18.89-.4-26.68-.83-53.4.09-80.06.59-17.28-4.84-33.87-3.43-51.16.88-10.72.51-11.08,11-11.13,5.06,0,10.17.51,15.15-.12,8.44-1.06,10,2.89,10.22,10.94.49,15.57-2.63,30.82-2.48,46.34.28,29.47-.15,58.94.22,88.41.1,8.42-2.13,14.78-8,20.63-12,11.92-12,32.57-.21,44.78,3.75,3.89,4.94,8.11,5,13.4.16,9.84-1.53,19.8,3.84,29.21,2.6,4.54-.24,9.22-4.79,11.71s-8.34.82-11.33-3c-3.13-4-2.87-8.17,0-12.23,7.09-9.93,6.69-27.66-1.57-36.47-5.64-6-8.25-12.43-7.42-20.85C434.84,395.29,434.37,389.3,434.37,383.36Zm2-18.24c3.77-3.05,3-6.91,3-10.38.1-17.78.05-35.56.05-53.34,0-15.56.05-31.11-.06-46.67,0-2.57,1-7.12-1.93-7.09-3.91,0-1.92,4.74-2.54,7.42a3.82,3.82,0,0,0,0,.83q0,50.83,0,101.68C434.88,359.93,434.09,362.54,436.33,365.12Zm11.81-2.48,1.55,0V248h-1.55Z"/><path class="cls-2" d="M634.15,362.2a52.18,52.18,0,0,1,5.25-2c5.8-1.52,10.19.49,11.84,6.61s-.84,10.29-6.7,12.09a36.86,36.86,0,0,1-4.72.81c3.49,7.06,8.1,7.67,15.71,1.95,3.51-2.64,7.06-3.89,11.14-1.87,3.24,1.61,4.45,4.6,4.62,8.16s-.59,6.66-3.68,8.66c-3.48,2.25-7.33,2.71-10.46-.05-4-3.51-8.29-4.61-13.25-4.4-3.48.15-6.24-1.72-8.22-4.42-4.37-6-10.17-7-16.94-6.93-33.77.22-67.56,0-101.34.19-6,0-10.62-1.59-14.83-6.24-6.38-7-13.25-13.63-20.13-20.17-4.85-4.61-7-9.86-6.88-16.87.3-27.52.09-55,.14-82.55,0-5,.26-9.62-6.57-9.68-3.95,0-4.28-3.57-4.31-6.72-.08-7.78,0-15.56-.05-23.34,0-4.82,2.07-7.13,6.78-7.06,7.71.12,15.43.1,23.14,0,4.12,0,6.72,1.62,6.74,6.22.05,8.61,2.41,18.26-.48,25.65-11.13,28.51-2.22,57.82-5.17,86.52-.62,6.08,2.22,10.09,5.73,14.68,9.24,12.07,20.26,16.34,35.22,15.66,28.14-1.3,56.38-.46,84.57-.31,5.36,0,9.9-.89,13.36-5.67,1.21-1.68,3.32-3.65,5.07-3.7a31.21,31.21,0,0,0,19.6-7.1c3.47-2.79,7.88-.35,10.28,3.5,2.75,4.4,2.72,9.22-1.13,12.9s-8.29,3.26-12.49.34c-9.94-6.93-15.48-5.65-21.81,5.13-6.88.51-13.77,1.41-20.66,1.46-24.73.17-49.49-.7-74.18.32-17.3.72-31.42-3-42.37-18.24-4.22-5.87-7.13-10.88-7-18.43.36-26,.14-52.07.14-78.11-1.11,28.58-1.23,57.15-1,85.73,0,7,22.76,30.91,29.39,31.72a12.23,12.23,0,0,0,1.6.06H627C630.24,366.75,633.57,366.84,634.15,362.2Zm-148-18.39-3.3,3.44c7.92,7.56,16,14.94,23.68,22.76a15.55,15.55,0,0,0,12,5.1c36.12-.12,72.24-.05,108.36-.08,1.53,0,3.37.51,5.53-2.42H621.72c-33.47,0-66.93-.15-100.4.13-6.65.06-11.72-1.75-16.07-7.06C499.11,358.19,492.55,351.08,486.16,343.81Z"/><path class="cls-2" d="M658.28,714.53c-3.76,2.45-2.12,5.57-2.66,8.12-1.11,5.16-3.92,8.66-9.32,8.44-5.15-.21-8.56-3.43-9.43-8.59-.93-5.55,2.36-10.4,7-10.24,8.31.29,12.23-5.73,16.88-10.41,11.51-11.56,22.27-23.92,33.75-35.51,3.86-3.9,5.12-7.93,5.1-13.24-.13-28.65,0-57.3-.12-86,0-5.58,1.14-10.14,5.16-14.2,11.87-12,23.45-24.28,35.12-36.47,2.28-2.39,4.56-4.93,8-5.14,5.65-.35,10.66-1.62,15.53-5.24,4.16-3.09,9-1.19,11.76,3.33,2.51,4.08,2.4,8.77-1.11,12.25-4,4-9,4.13-13,.27-5.82-5.63-11.14-5.68-16.74-.14-1.12,1.11-2.81,2.22-2.34,4,.53,2,2.59,1.59,4.09,1.6,9.31,0,18.63-.11,27.94,0,3.92.06,6.19-2.63,9-4.64,4.31-3.05,8.76-2.52,12.27,1.47,3.27,3.71,3.27,8.36.78,12.37-2.62,4.2-7.72,6.16-11.13,3-7.63-7-16.49-4.12-24.86-5.6-15.41-2.74-25,5.68-33.89,16.69-2.14,2.66-2.81,3.84.75,6.12,7.7,4.93,8.39,9.48,2.86,17C727.33,577.11,727,580.4,727,584c0,11.68,0,23.37,0,35.05,0,4.55.36,8.63,3.84,12.16s3.13,8.18.28,12.14-7,5.46-11.32,3c-5.5-3.17-6.07.07-5.46,4.26,1.81,12.48-3.68,20.69-12.45,28.56-11.26,10.1-21.39,21.61-31.75,32.77-7.11,7.67-7.48,15.34-1.62,23.79,3.5,5,3.63,9.88-.69,14.21-3.88,3.87-8.57,3.61-12.27,0-4.24-4.1-4.41-9.16-.86-14.24C657.79,731.23,657.7,731.16,658.28,714.53Zm56.29-82.82c8.5-7.66,8.3-53.62,0-58.33Z"/><path class="cls-2" d="M99.5,276c6.65,0,13.31-.22,20,.07,6.22.27,10.88,3.2,11.42,10.32.47,6.1-4.24,10.24-11.69,10.86-10.6.87-10.61.87-10.64,12.21,0,3.89.34,7.82-.06,11.67-1.39,13.2.81,24.74,12.13,32.87,3.93,2.82,4,7.47,4,12.06-.07,17,0,33.92,0,50.88,0,4,0,7.87,5.17,8.71,2.95.48,3.36,3.16,3.34,5.82-.05,12.23-.2,24.47-.11,36.7,0,5.27-2.14,7.7-7.16,7.59-4.52-.1-9.06.2-13.57-.09-7.55-.48-14.91-8.5-15.14-16.5-.21-7.22-.1-14.45-.07-21.68,0-5.42-1.23-11.28,6.27-13.17,2.56-.65,2.1-4.21,2.1-6.67,0-14.73-.12-29.47.08-44.21.11-8.59-6.22-12.66-11.14-17.26s-7.26-9.64-7-16.64c.4-11.39-.06-22.8.18-34.2.11-5.54-1.6-8.11-7.25-8.19-6.47-.09-11.57-2.82-11.67-10.7-.09-6.68,4.43-10.43,12.52-10.84.53,0,1.07,0,1.6,0H99.5Z"/><path class="cls-2" d="M78.15,908.53c2.28-2.45,1.39-5.35,1.4-7.93.08-22.81,0-45.61.07-68.41,0-4.86-.55-9.11-4-13-3.71-4.27-3.45-9.33.68-13.4s8.83-3.82,12.86.14,4.17,8.87.47,13.35c-2,2.42-3.46,4.85-3.45,8.14,0,26.11,0,52.22,1.39,78.34,0-16.66.31-33.33-.1-50-.29-11.38.24-21.4,9.83-29.8,6-5.21,4.57-13.42-.54-20.2-4-5.34-3-10.71,2.06-14.52,4.6-3.47,9.23-2,12.67,2.46,3.14,4.1,2.18,8.36-.61,12.26-1.41,2-3.88,3.6-3.52,6.29,1.4,10.27-3.12,17.51-10.26,23.75-3.18,2.77-2.92,6.94-2.92,10.86,0,18.63-.15,37.27.07,55.9.06,5.92-1.18,10.61-5.64,14.73-5.35,4.95-10,10.76-15,16-1.47,1.53-3.44,3.57-5.2,3.59-18.23.16-35.38,9.69-54,6.59-3.68-.61-5.2-2.14-5.19-5.79q0-12.93,0-25.86c0-4.26,2.27-5.93,6.06-5.93,8,0,16,0,24,0a5.58,5.58,0,0,1,4.86,2.26,15.59,15.59,0,0,0,24.7.27,12.65,12.65,0,0,0,2.73-8.44c0-18.08-.09-36.16.06-54.23a15.42,15.42,0,0,0-6.19-12.86c-5.66-4.5-9.32-9.79-8.3-17.68.46-3.59-1.35-6.24-3.54-8.89-3.87-4.7-3.84-9.73.45-14.14,3.84-3.95,8.43-3.8,12.23-.26,4.46,4.14,4.13,9.27,1,14.3-5.47,8.73-5.39,14.12,2,21,6.15,5.71,8.29,12.07,8,20.51-.49,17.5-.19,35-.1,52.55C77.26,903.1,76.31,905.9,78.15,908.53Z"/><path class="cls-2" d="M546.45,1167l-16.28-17q0-96.79.16-193.58c0-6.34-1.81-11-6.15-15.43-14.86-15.14-29.41-30.62-44.11-45.94-2.86-3-5.61-5.83-5.73-10.53-.24-8.43,1.13-16.94-5.27-24.4-3-3.47-.66-8.72,3.23-11.57s8.22-2.62,11.69.92a9.68,9.68,0,0,1,1.73,12.18c-8.37,15.46-7,23.33,4.93,35.49C505,911.6,518.79,926.63,533,941.28c3.92,4,3.83,8.87,3.83,13.9q0,82.19,0,164.38v9.72c6.88-1.94,5.86-7.11,5.87-11.49q.07-61.32,0-122.66c0-15-.13-30,.07-45a15.88,15.88,0,0,0-5.14-12.4c-11.15-11.15-21.86-22.76-32.9-34a21.28,21.28,0,0,1-6.38-16.33c.16-9.26,1.65-18.69-4.83-27.09-2.89-3.76-.69-8.66,3.15-11.64,4-3.09,8.14-2.55,11.67.8,3.88,3.67,4.19,8.35,1.63,12.9-8.68,15.42-7.15,29.51,4.87,42.13,8.82,9.25,17.52,18.65,26.6,27.61,5,5,7,10.33,7,17.64-.25,55.34-.12,110.69-.14,166,0,5.3,0,10.14,4.22,14.48,3.49,3.56,3.27,9,0,13-4.26,5.29-9.44,3.74-15.09,1.22,1.73,7.11,7.27,11.2,12.3,15.27,4,3.22,6.55-1.08,9.4-3.5,4.34-3.69,9-3.56,12.89.68,3.6,3.93,3.71,8.74.37,12.86-3.62,4.46-8.55,5.18-12.78,1.4C555.66,1167.54,551.36,1166.63,546.45,1167Z"/><path class="cls-2" d="M664.88,421.43c-4.44-1.14-7,1.7-9.09,4.4-4.34,5.47-9.72,6.78-16.28,6.72-28.47-.26-57-.31-85.43,0-7.22.09-13.27-1.36-17.41-7.66-8.35-12.75-20-16.06-34-14.27-3.77.49-7.17.78-10.19,3.72-4.59,4.45-9.84,4.62-14.16-.23-3.55-4-3.19-9.17.31-12.89,4-4.24,9.3-4.55,13.66-.49,3.93,3.66,8.47,3.7,12.77,3,14.69-2.48,25.88,3.27,34.55,15.15,4,5.49,9,6.81,15.33,6.75,27.94-.23,55.89-.12,83.84-.1,4.3,0,8.73.25,11.77-3.65,4.71-6,10.8-7.05,17.84-6.9,16.23.37,32.47.19,48.7.08,10.1-.06,19.73-9.09,21-19.54.72-5.73,3.62-9.52,9.19-9.63,5.38-.11,9.27,2.92,9.74,8.88s-2.91,10-8.23,10.36c-9.38.6-13.19,8.06-18.85,14,3.78,2.46,5.27-.73,7.24-2.09,4.78-3.3,9.27-2.65,12.91,1.56s3.16,9-.29,12.87c-3.79,4.28-8.84,4.68-12.78.61s-8.23-4.42-13.11-4.39c-15.17.09-30.36.38-45.51-.12-7.3-.23-13,1.73-17.36,7.83-5.23,7.36-12.17,9.29-20.85,9.17-35.13-.45-70.27-.31-105.4-.07-6.58,0-11.65-1.66-16.26-6.79-7.75-8.63-25.44-9.7-34.76-2.66-4.51,3.41-9.1,3.57-13-.45-3.75-3.82-3.58-8.64-.56-12.92,3.19-4.52,8.52-5.66,11.95-2.19,7,7.06,15.16,6,23.17,5.47,7.32-.52,13.12,1.65,17.6,7.37,3.94,5,8.84,6.32,14.79,6.28,31.14-.17,62.31-.92,93.41.31C646.14,439.49,656.8,434.63,664.88,421.43Z"/><path class="cls-2" d="M268.28,816.09c-1.72-5.39-1.52-11-1.48-16.53.05-6.63.31-13-4.59-18.67-3.5-4.06-1.76-9.18,2.06-12.59,4-3.56,8.5-3.15,12.26.56s4.1,8.26,1.3,12.87c-7.65,12.61-7.21,28.14,3.69,37,18.51,15,24.14,33.23,23.37,57.52-.56,17.88-5.74,29.64-17.68,41.53-30.21,30.1-59.2,61.55-88.75,92.38-3.06,3.19-4.15,6.44-4,11.07.45,15,.2,30,.33,45a16.7,16.7,0,0,1-5.49,13.18c-6.87,6.52-13.15,13.72-19.85,20.44-2.63,2.64-2.89,5.75-2.88,9.14,0,10,0,20,0,30,0,3.67-.14,7.25-2.84,10.08-5,5.23-10.42,9.76-10.45,18.61,0,4.51-4.81,7.3-9.62,6.69s-7.84-3.6-8.09-8.79,1.76-9.15,7-10.55c14.59-3.83,19.7-9.13,18.07-24.91-2.25-21.81,3.08-39,20.71-51.69,5.27-3.81,7.22-9.66,7-16.75-.47-13.88.1-27.79-.24-41.68a19.89,19.89,0,0,1,6.14-15.45c22-22.62,43.73-45.48,65.51-68.3,3.56-3.73,6.86-7.73,10.28-11.6,3.62-3.63,7.42-7.07,10.82-10.92,7.17-8.12,17.31-14.21,17.36-27.34,0-11.6.27-23.21.35-34.81,0-3-1.78-5-3.7-7C286,835.12,277.14,825.58,268.28,816.09Z"/><path class="cls-2" d="M506.85,1062.21c0,22.17-.18,44.34.11,66.5.08,6.33-1.3,11.43-6.09,15.4a16.06,16.06,0,0,0-6.17,12.77c-.18,5.61-4.24,9-9.74,8.93-5.12-.09-8.66-3.08-8.94-8.71-.29-5.82,2.71-9.31,8.15-10.61,11.84-2.83,17-9.46,17-22,.05-18.36-.2-36.72.13-55.08.11-6.4-1.46-11.52-6.38-15.23-10.75-8.11-14.75-18.91-12.86-32.55.64-4.63-.18-9.47.16-14.17.45-6-1.36-10.82-5.75-14.75-2.87-2.56-5.21-5.52-5.25-9.87-.06-7.95.69-15.81-5-22.82-3-3.69-.85-8.72,3.07-11.58s8.22-2.88,11.79.54c3.83,3.68,4.64,8.94,1.27,12.77-4.79,5.42-4.7,11.44-4.49,17.84.07,2.25,0,4.89,1.79,6.21,9.75,7.2,8.17,17.82,8.1,28a116.46,116.46,0,0,0,.93,18.35q0-21.48,0-43c0-3-1.74-5.14-3.36-7.37-3.67-5.06-3.26-9.91,1.33-14,4-3.58,8.46-3.45,12.23.4,4.11,4.19,4,9.2.28,13.42-3.23,3.67-3.75,7.69-3.71,12.26.1,12,.13,23.92,0,35.88-.05,4.73,1,8.48,4.78,11.61,10.36,8.49,15.52,18.71,14.48,33.59-1.5,21.3-.35,42.8-.41,64.22,0,5.36.29,10.23,4.12,14.68s2.31,9.51-1.66,13.28-8.39,3.41-12.24-.23-4.66-8.88-1.15-12.66c4.54-4.9,4.4-10.39,4.39-16.22q0-37.93,0-75.85Z"/><path class="cls-2" d="M755.2,947.71c9.39-.22,16.61.89,23.22-4.87,4.29-3.73,9.83-1.51,13.54,2.9,3.56,4.24,3.69,9.18.79,13.89s-7.85,8-12.2,5c-10.11-7-21-5-31.67-4.71-8.72.22-14.85-2.73-20.93-9.26-23.55-25.32-47.55-50.19-71.66-74.94a21.29,21.29,0,0,1-6.59-16.92c.41-11.95.08-23.92.13-35.87,0-6.39,0-12.41-4.05-18.15-3.39-4.79-1.51-10.31,2.6-14.24s8.82-4.12,13.28-1.09c4.65,3.17,7.81,8.59,4.54,13.53-6.59,9.95-3.59,20.86-5,31.33-2.85,20.84,3.9,36.22,19.28,50,17.73,15.89,33.66,34,49.81,51.72C737.89,944.34,745.53,950.67,755.2,947.71Z"/><path class="cls-2" d="M37.67,450.61c6.68,1.64,13,3.25,18.81-2.25,4.13-3.92,9.07-3.27,12.79,1.1,3.4,4,3.76,8.68.15,12.82-3.75,4.32-8.65,5.18-12.79,1.31s-8.82-4.85-14-4.36c-6.65.62-12-1.46-15.89-7.32-1-1.55-2.74-2.61-4.14-3.89-8.91-8.17-14.07-17.2-13.33-30.85,1.31-23.83.32-47.79.4-71.7,0-5.63-.26-10.79-4.16-15.53-3.16-3.84-3.69-8.91.82-12.56,4.18-3.38,9-4.09,13.09,0s4.22,9.15.55,13.47c-3.11,3.66-4.63,7.25-3.14,12.69,5.19-2.9,8.41-6.39,8.6-12.7.19-6.08,3.39-10.15,9.44-10.11,5.48,0,9.15,3.47,9.43,9.29.31,6.34-3.58,9.4-9.22,10.54-9.92,2-12.7,5.28-12.74,15.48-.07,21.4.26,42.82-.13,64.22-.19,10.86,6.52,16.67,13.5,22.1,4.06,3.17,8.86,1.44,12.08-2.66,4.63-5.87,10.33-8.36,17.54-7.5,3.63.44,6.57-1.25,9.5-3.48,4.71-3.6,9.51-3.37,13.53,1.36,3.66,4.31,3,8.9-.54,12.71-4.26,4.54-9.19,4-13.59.1-6.21-5.5-12.71-5.4-18.89-.79C50,446.13,45.46,451.61,37.67,450.61Z"/><path class="cls-2" d="M602,264.89c10.65,0,21.29,0,31.93,0,7.13,0,14,.45,20.42-4.7,4.74-3.78,10.3-1.74,14.07,3.28,3.61,4.8,3.4,9.93-.29,14.51-3.93,4.87-9.76,6.49-14.24,2.62-5.9-5.1-12.2-4.67-18.77-4.68-26.08,0-52.16-.12-78.23.07-5.46,0-9.68-1.5-13.4-5.76-5-5.74-10.66-10.88-15.7-16.6-4.53-5.14-9.28-9-16.52-8-4.4.63-6.31-2.12-6.32-6.47,0-8.06,0-16.12.06-24.18.05-4.35,2.21-6.6,6.51-6.57,7.71.05,15.43.1,23.15,0,5.24-.11,7.42,2.75,6.87,7.75-1.08,10,2.86,20.51-2.48,30.15a2.56,2.56,0,0,0,0,1.59c1,4.36,16.68,16.95,21.39,17C574.28,264.93,588.12,264.89,602,264.89Z"/><path class="cls-2" d="M396.17,334.64c.72,9.89-1.95,21.32,4.37,32,2.47,4.16-.09,9.33-4,12.44a10,10,0,0,1-12.69.41c-4.16-2.89-6.75-8-4.58-12.26,7.35-14.3,3.74-29.44,4.06-44.17.27-12.25.13-23.91,11.15-31.84a7.23,7.23,0,0,0,2.54-5c.27-11.94.28-23.9.26-35.85,0-3.65-2.49-4.69-5.45-4.54-5.83.31-7.22-3.17-7.11-8.41.15-6.94.18-13.9,0-20.85-.14-5.47,1.77-8.34,7.38-8.18,6.92.19,13.84.21,20.75,0,6-.21,8,2.78,7.74,8.66-.26,5.54-.11,11.12,0,16.68.08,6.2.95,12.48-8.19,12.59-3.8.05-3.35,4.41-3.38,7.38-.11,10.84-.12,21.69-.11,32.53,0,4.29-.18,8.81-3.78,11.37-8.45,6-9.78,14.49-8.94,24.14C396.45,325.57,396.17,329.49,396.17,334.64Z"/><path class="cls-2" d="M695.28,762.84c-2.68,2.09-1.27,5-2.55,7.15-3,5-9.14,7.09-13.81,3.83-5-3.49-6.49-8.6-2.72-13.58,3.19-4.24,4.78-8.46,4.51-13.71-.21-4.22,1.95-7.29,4.7-10.15,18.31-19,36.62-38,54.75-57.2,3.67-3.89,7.6-5.64,12.75-5.4,5.84.28,11.71,0,17.56.1,4.4.11,8.13-.54,11.48-4.26,3.83-4.26,8.76-4.24,12.75,0s4.13,9.29.56,13.59-8.57,4.43-12.94,1c-3.21-2.49-7-7-10-3-2.37,3.24,3.63,5.69,5.72,8.62,2.37,3.34,5.77,4.42,9.83,4.35,6-.1,9.49,3.22,9.53,9.71,0,5.48-2.47,9.2-7.87,9.69-6,.56-9.53-2.66-10.35-8.94-1.18-9.08-7.61-14.38-14.44-17.36-6.66-2.91-13.69-.93-19.47,5.37-14,15.25-28.62,29.87-42.85,44.88-5.82,6.14-6.29,14.1-1.15,21a15.67,15.67,0,0,1,3.47,10.71c-.19,3.68.4,7,2.93,10,4.11,4.94,4.19,10.31-.84,14.64-4.4,3.79-9.23,3-12.83-1.3-4.1-4.85-2.84-10,1.41-14C701.19,773.1,699.3,768.22,695.28,762.84Z"/><path class="cls-2" d="M359.83,290.49c5.54-3.54,9.07-6.44,8.41-13.09-.56-5.66,2.65-9.72,8.45-9.93,5.08-.18,8.81,2.57,9.63,8,.89,6-2.16,9.3-7.6,10.78-9.8,2.66-12.81,6.82-12.83,17.7,0,26.42-.21,52.84.11,79.26.09,7.26-1.76,12.82-7,17.62s-9.78,10.22-14.78,15.23c-3.52,3.52-4.53,6.62,0,10.18A8.38,8.38,0,0,1,347,436.69c-1.57,3.85-4.36,6.39-8.54,6.44s-7.34-2-8.56-6.18c-1.18-4-3.28-5.65-7.26-6.31-4.71-.77-7.42-4.47-7.34-9.5.08-4.28,2.62-8.45,6.46-8.37,9.13.19,13.18-7,19.14-11.86,10-8.12,12.92-18.16,12.43-31.21-.93-24.71-.28-49.49-.26-74.24,0-4.48,0-8.71-3.39-12.39-4-4.42-3.2-9.41.79-13.3s8.39-3.25,12.28.3c4.14,3.78,3.68,8.25,1,12.78C362.52,284.91,360.29,286.35,359.83,290.49Z"/><path class="cls-2" d="M9.26,967c.19-21.19-2.76-18.32,18.25-19.41,11.35-.58,21.66,5.17,33,3.81,4.78-.57,9.24-.45,13.23-4.28s9.06-3.19,12.83,1c3.64,4,3.17,8.92,0,12.94-3.62,4.63-8.63,4.86-12.77,1.15-7.54-6.78-16.22-3.7-24.47-3.83-4.39-.06-4.31,4.06-4.35,7.46,0,3.61.48,7.11,4.89,6.93,8.52-.35,17.42,2.58,25.11-4.57,3.49-3.25,8.3-2.27,11.46,1.62a9.9,9.9,0,0,1,.12,13c-3.07,4-7.88,5.1-11.41,1.86-7.43-6.81-16-4.45-24.31-4.8-1.29,0-3.09,0-3.82.82-9.47,10.69-21.57,3.89-32.39,5.36-3.39.46-5.34-2-5.35-5.74Q9.25,973.66,9.26,967Z"/><path class="cls-2" d="M9.26,1008.39c.15-20.47-2.61-18.7,17.88-18.68a53.07,53.07,0,0,1,20.56,3.6c7.61,3.06,17.63,4.1,25.7-2.88,4.13-3.57,9.06-3.86,12.86.71,3.56,4.27,3.69,9.42,0,13.64-3.86,4.38-8.75,4-12.92.45-7.54-6.47-16.3-3.62-24.52-3.66-4.76,0-3.71,5.15-3.82,8.62s1.24,6.18,5,6c8.47-.49,17.4,2.68,25-4.81,3.35-3.32,8.19-2.33,11.46,1.49,3.49,4.1,3.3,8.79.12,12.94-3,4-7.48,4.94-11.47,2.3-10.88-7.21-21.24-5.91-32.92-1.3-9.06,3.58-19.43,1.73-29.21.6-2.84-.33-3.65-2.94-3.68-5.64C9.23,1017.28,9.26,1012.84,9.26,1008.39Z"/><path class="cls-2" d="M175.73,78.5c11.44,0,22.89.43,34.29-.15,7.63-.39,13.4,2.33,18.3,8,2.31,2.68,4.25,6,7.09,7.84,24.42,15.44,21.22,40.19,20.25,64.25-.12,3-1.71,5.18-3.58,7.21-5.71,6.2-11.39,12.42-17.16,18.56-7.35,7.83-9.17,27.69-3.34,36.91a19.86,19.86,0,0,1,2.36,4.3,9.32,9.32,0,0,1-3.37,11c-4,3-8,2.6-11.71-.66-3.46-3.08-5-7.95-2.15-11.16,6.89-7.87,5.39-17.07,5.11-26-.23-7.52,1.32-13.77,7.33-18.21,16.75-12.37,22.82-28.88,20.38-50.25-1-8.81-3.75-14.94-8.81-21.92C226.61,88.77,208.88,82.2,186.09,85c-13.63,1.68-27.61.29-41.44.32-7.07,0-14.08-.9-20.18,5.05-3.47,3.38-8.18,1.61-11.42-2a9.1,9.1,0,0,1-1-11.5c2.57-4.25,7.23-6.92,10.85-4,10.52,8.52,22.38,4.81,33.73,5.52C163,78.83,169.35,78.5,175.73,78.5Z"/><path class="cls-2" d="M268.28,816.09c8.86,9.49,17.67,19,26.6,28.46,1.92,2,3.72,4,3.7,7-.08,11.6-.3,23.21-.35,34.81-.05,13.13-10.19,19.22-17.36,27.34-3.4,3.85-7.2,7.29-10.82,10.92-5.15,0-9.78.89-14,4.61-3.9,3.41-8.54,3.14-12.1-1.14s-3.64-9.17.1-13.53,8.43-4.52,12.08-.9c6.75,6.69,11.75,3.87,16.9-1.87q7.1-7.89,14.41-15.55a9.06,9.06,0,0,0,2.92-6.56c0-.55,0-1.11.05-1.66,1.86-37.57,2-37.71-23.95-64.12-5.79-5.9-9-12-7.93-20.47s-.75-15.87-7.82-21.25C247,779.37,246,775.13,246,770.4c.14-8.6-.06-17.22.08-25.82.1-6.19-.17-11.91-4.49-17.07-3.55-4.26-1.94-9,1.84-12.54s7.9-3.2,11.67-.1c4.11,3.38,5.25,8.11,2.37,12.59-9.54,14.89-3.2,31.2-4.21,46.83-.08,1.33,1.24,3.24,2.43,4.12,8.27,6.07,9.43,14.57,8.53,24.25C263.79,807.43,263.06,812.9,268.28,816.09Z"/><path class="cls-2" d="M768,374.29q0,33.68,0,67.35A19.93,19.93,0,0,0,771.82,454c3.33,4.52,3.14,9.58-1.42,13.28-4,3.23-8.59,3.18-12.46-.33-4.39-4-4.37-9.18-.74-13.32,3.82-4.37,4.38-9.11,4.37-14.53-.08-38.32,0-76.63-.05-114.95,0-11.8-5.47-19.46-14.47-20.14-14.6-1.1-25.4.5-26.74,16.32-.53,6.18-4.44,9.54-10.33,9.16-5.23-.34-8.27-4.08-8.44-9.38-.18-5.8,3.24-10,8.57-10,5.76,0,8.63-3.71,11.88-7.22,9.36-10.12,21-5.66,31.61-4.69,7,.63,14.56,15.38,14.59,24.46,0,17.22,0,34.44,0,51.66Z"/><path class="cls-2" d="M638.7,927.64c4.4-.11,7.49,1.18,9.28,4.8,1.89,3.81,1.44,7.48-.9,11-6.32,9.44-6.2,9.38,1.77,17.65,19.43,20.16,38.71,40.48,58.16,60.61,3.56,3.67,4.41,7.86,4.39,12.82-.11,23.62,0,47.25,0,70.88,0,5.33,0,10.2,4.59,14.25,4.18,3.66,3.25,8.64-.2,12.59s-8.06,4.33-12.28,1.29-5.74-8.54-2.45-12.38c5.74-6.73,4.78-14.3,4.8-22,0-20-.14-40,.1-60,.07-6-1.57-10.5-5.71-14.76q-29.81-30.72-59.14-61.94c-6.46-6.88-7.4-16.77-10.3-25.37C629,932,633.63,928,638.7,927.64Z"/><path class="cls-2" d="M755.67,131.09a9.47,9.47,0,0,1-5.26,8.06c-3.66,1.92-7.57,1.82-10.34-1.35-5.21-6-9.62-4.38-14.08.71a12.54,12.54,0,0,0-1.13,1.18C713,158,696.36,161.91,676,160.9c-32.64-1.61-65.42-.39-98.13-.4-4.8,0-9.39-.06-13.57,3.42-3.33,2.77-7.21,2-10-1.44a8.2,8.2,0,0,1-.11-10.72c2.67-3.52,6.5-4.45,9.89-1.69,4.42,3.6,9.27,3.61,14.35,3.6,38,0,76.07-.14,114.11.08,6.59,0,11.89-1.44,16.19-6.9,2.68-3.42,6.66-5.87,8.86-9.53,6.28-10.48,18.06-10.52,26.92-16C749.4,118.26,755.77,124.22,755.67,131.09Z"/><path class="cls-2" d="M305,1162.89a11.48,11.48,0,0,1,3.21-8.5c4.8-5.37,4.07-11,.42-16.63a13.14,13.14,0,0,0-3.09-3.79c-14.27-9.85-15.94-24.2-15.47-40.7.94-32.49.36-65,.2-97.55,0-5.64,1.08-10.34,5.21-14.17,2.84-2.64,4.28-5.95,4.9-10.09.85-5.67,4-10,10.31-9.09,4.91.73,8.43,3.94,8.43,9.5,0,6.35-3.72,9.32-9.57,10-9.51,1.19-13.58,5.82-13.6,15.71-.07,36.41,0,72.82-.11,109.23,0,5.42,1.44,9.64,5.29,13.27s7.41,8,11.35,11.7,6.06,7.71,5.41,13.17c-.58,4.88,2.09,8.32,4.36,12.11a9.19,9.19,0,0,1-1.24,11.51c-2.8,3.09-6.33,4-10.2,2.29A9.4,9.4,0,0,1,305,1162.89Z"/><path class="cls-2" d="M314.68,394a9.13,9.13,0,0,1-8.44-5.27c-1.87-3.57-1.65-7.44,1-10.05,4.07-3.95,4-8.7,4-13.74,0-28.89.09-57.78-.1-86.67,0-6,1.47-10.59,5.76-14.73,7.22-7,14.06-14.37,20.93-21.72,4.52-4.83,9.79-8.78,10.08-17,.17-4.79,4.56-8.21,9.95-7.2,4.77.88,7.42,4.42,7.68,9.34.3,5.69-3.2,9.59-8,9.47-6.34-.16-9.62,3.72-13.3,7.59-6,6.29-11.42,13.24-17.94,18.84s-8.72,12.25-8.57,21c.45,26.38.17,52.78.16,79.16,0,5.82.2,11.19,3.83,16.51A9.07,9.07,0,0,1,314.68,394Z"/><path class="cls-2" d="M222.05,428.48c-.49-9.83,1.52-18.16-4.94-25.29-3.19-3.51-1.79-8.55,1.91-11.86s7.9-3.6,11.69-.44c4,3.31,5.59,8.36,2.48,12.58-8.37,11.33-3.62,24-4.18,36.07-.21,4.33,3.51,7.32,6.31,10.25q32.08,33.58,64.2,67.12c2.43,2.55,5.18,3.46,8.48,3.91,6,.81,9,4.74,8.39,11-.59,5.94-4.57,9-9.93,8.51-5.68-.55-9.45-4.34-8.55-10.74.72-5.1-2.19-7.65-5-10.59-19.71-20.62-39-41.69-59.32-61.68C224.71,448.53,219.39,439.61,222.05,428.48Z"/><path class="cls-2" d="M740.89,168.46c4.73.38,7.56,2.57,8.93,6.65a9.33,9.33,0,0,1-2.71,10.54c-3.1,2.84-6.64,3.84-10.27,1.49-16.08-10.41-33.62-3.92-50.47-4.46-5.89-.19-9.26,7-13.19,11.36a17.71,17.71,0,0,1-14.79,6.36c-12-.32-23.94-.12-35.91-.08-6.84,0-13.55-.54-19.84,4.12-4,3-9.09,1.33-11.92-3.13s-2.19-9.18,1.69-12.81,8.47-4.25,12.09,0c3.87,4.51,8.44,5,13.66,5,11.17-.17,22.4-.77,33.5.16,10.08.84,17.66-2.37,23.2-10.91,4-6.23,9.52-8.09,16.48-7.69,7.69.44,15.42.16,23.14.08s16,1.67,22.45-5.39C737.86,168.65,739.9,168.74,740.89,168.46Z"/><path class="cls-2" d="M225.23,733.57c7,0,12.26,7.44,8.19,13.11-6.36,8.86-5.41,18.45-4.68,27.83.89,11.43-3,19.45-11.2,26.52-6.52,5.59-11.36,13.51-18.21,18.5-17.77,12.93-11.22,31.61-11.62,48.63-.05,2.27,2.78,4.53,4,6.92,2.52,4.76,2,9.2-2.15,12.66-3.77,3.17-7.91,3.12-11.72,0s-5.41-8.14-2.36-11.76c6.28-7.43,4.89-15.94,5-24.38a72,72,0,0,0,0-7.49c-.85-9.83,2.37-17.42,9.6-24.09,9.34-8.63,17.68-18.42,26.66-27.49A16.55,16.55,0,0,0,222,779.24c-.29-5.82-.14-11.66,0-17.49.1-4.58-.48-8.68-3.87-12.17-2.94-3-3.08-6.92-1.3-10.81C218.51,735.08,221.51,733.7,225.23,733.57Z"/><path class="cls-2" d="M199.37,872.54c-.13-19.33,14.2-34.52,32.67-34.63,17.36-.1,31.65,15,31.88,33.61.25,20-13.73,34.49-33.32,34.64C214.33,906.28,199.49,890.31,199.37,872.54Zm19.45-21.23.06,0c-8.65,4.57-13.76,15.27-11.84,24.82,2.93,14.64,13.7,23.09,27.67,21.69,12.44-1.24,21.68-12.23,21.68-26.48,0-10.82-5.38-18.71-14.69-22.78C234,845.12,225.71,843.9,218.82,851.31Z"/><path class="cls-2" d="M241.78,137.56c.46,18.7-13.85,34.27-31.78,34.58s-32.65-14.43-33-33.33c-.31-18.46,14.32-34.49,31.82-34.86S241.32,118.92,241.78,137.56Zm-16.52,19.31-.06.06c8.73-7.38,11.47-17.46,7.61-28a25.73,25.73,0,0,0-24.29-16.73c-9.92.27-20,8.08-22.76,17.73-3.59,12.34,1.26,25.18,11.87,31.38C205.91,166.11,218.9,164,225.26,156.87Z"/><path class="cls-2" d="M649.82,1073.92a10.69,10.69,0,0,1,1.83-6.27c7.14-11.87,6.32-21.28-2.94-31.06q-32-33.78-64.11-67.46c-3.07-3.23-6.17-5.74-10.9-6-6-.4-9-4.36-8.64-10.71.28-5.65,3.38-9,8.61-8.89,5.77.11,9.8,3.71,9.75,9.89,0,5.15,2.36,8.2,5.44,11.41q33.64,35,67.2,70.2c2.84,3,5.62,5.75,5.69,10.52.12,8.69-1.51,17.69,6.12,24.76,2.69,2.49,1,7-1.65,9.76-2.78,3-6.25,4.32-10.18,2.75S650.12,1078.22,649.82,1073.92Z"/><path class="cls-2" d="M361.11,38.7c-5.32,0-10.7-.54-15.95.11-12.52,1.53-23.07-1.34-30.68-12.64-1.76-2.6-4.29-3.46-7.63-3.38-5.86.14-9.71-3.25-9.73-9.63,0-5.81,3.3-9.45,8.87-9.81,6.16-.4,9.18,3.6,10,9.54,1.58,10.94,9.85,18.82,20.27,18.87,16.5.09,33,.14,49.49,0,10.27-.1,16.5-6.33,17.54-17,.56-5.84,3.61-9.34,9.16-9.6,5.26-.24,8.6,3,9.38,8.3.85,5.8-2,10.8-7.27,11-6.64.23-10.09,4.33-13.76,8.54a15.77,15.77,0,0,1-13.39,5.86C378.68,38.46,369.89,38.69,361.11,38.7Z"/><path class="cls-2" d="M677.18,369.63c0-18.64,15.37-34.51,33.23-34.28s32.32,15.64,32.41,34.2S727.57,403.94,709.59,404C692.5,404,677.19,387.77,677.18,369.63Zm32.53-27.35c-15.1.17-26.12,11.9-25.93,27.61s11.59,27.34,26.47,27.22c14.68-.11,26.11-12.32,26-27.79S724.77,342.1,709.71,342.28Z"/><path class="cls-2" d="M656.82,36c.3-8,9-13.14,14.71-8.58,5.21,4.18,10.58,4.44,16.45,4.42,16.48-.06,33,0,49.44,0,7.61,0,15.16.86,21.92-5,3.95-3.41,8.77-1.49,11.81,2.89,2.88,4.13,2.39,8.47-.77,12.22-3.53,4.2-8.35,5-12.06,1.4-4.7-4.52-9.88-4.66-15.51-4.65q-28.69.1-57.4,0c-4.88,0-9.37.19-13.17,4.26-2.85,3-6.76,3.17-10.37,1.13A10.19,10.19,0,0,1,656.82,36Z"/><path class="cls-2" d="M595.77,178.38c-3.81-.06-6.62,1.77-9.44,4.11-4.64,3.85-9.48,3.73-13.48-1-3.52-4.17-3.18-8.87.28-12.85,4.14-4.75,9-4.52,13.42-.43a13.08,13.08,0,0,0,10.22,3.64c3.88-.2,7.37.67,10.19,3.72,2.66,2.86,6.13,3,9.64,3,8.79,0,17.57-.05,26.35,0,3.81,0,7.12-.59,10.32-3.33,4.76-4.09,10.13-3.88,14.16,1.18,3.33,4.18,2.7,9.07-1.11,12.74-4.38,4.22-9.26,4.16-13.45-.37-2.5-2.71-5.34-3.32-8.63-3.3-6.92,0-13.84,0-20.76,0-7.62,0-15.48,1.38-21.7-5.43C600.56,178.7,597.81,178.89,595.77,178.38Z"/><path class="cls-2" d="M435.89,659.07c6.06.49,10,3.26,9.84,9.81-.14,5,2,8.38,5.18,11.61,6.48,6.6,12.74,13.44,19.27,20,4.34,4.33,8.29,8.88,15.21,9.69,4.92.58,8.55,5,7.58,10.94-.84,5.17-4.06,8.57-9.43,8.33-5.62-.27-9.12-3.84-9.17-9.54,0-5.35-2.41-8.79-5.75-12.19-6.86-7-13.59-14.11-20.36-21.2-3.73-3.91-7.09-7.58-13.28-7.94-5.05-.3-8.55-4.74-7.93-10.64C427.6,662.6,430.85,659.55,435.89,659.07Z"/><path class="cls-2" d="M560.81,724.69c-.91,5.14,1.92,13.25-5.65,13.38s-5.14-8-5.57-13a49.72,49.72,0,0,1,.35-9.9c.33-2.92,1.69-5.45,4.93-5.46s4.86,2.22,5.3,5.17C560.65,718.15,560.62,721.49,560.81,724.69Z"/><path class="cls-2" d="M363.12,660.58c6,.41,9.22,3.73,9.18,9.56-.05,6.16-3.45,10.05-9.48,9.9-5.59-.15-9-4.08-9.1-9.65C353.57,664.13,357.48,661,363.12,660.58Z"/><path class="cls-2" d="M620.8,724.44c0-2.78,0-5.56,0-8.33,0-3.49,1.11-6.26,4.75-6.4s5,2.92,5.14,6.14c.25,5.54.3,11.1,0,16.64-.15,3.24-1.58,6.18-5.34,5.89-3.59-.27-4.78-3.06-4.87-6.45-.06-2.5,0-5,0-7.49Z"/><path class="cls-2" d="M606.78,721.69c.94-3.32-3.23-11.34,4.27-11.6,7.74-.26,5.14,7.9,5.62,12.9a47,47,0,0,1-.27,9.91c-.33,2.86-1.59,5.49-4.89,5.48s-4.51-2.55-4.69-5.53C606.63,729.55,606.78,726.23,606.78,721.69Z"/><path class="cls-2" d="M587.93,724.44c0,3.06.2,6.13-.06,9.16-.23,2.73-1.71,4.74-4.59,4.79a4.38,4.38,0,0,1-4.53-3.93,70.33,70.33,0,0,1-.1-20.74,4.29,4.29,0,0,1,4.47-4c2.9,0,4.46,2,4.7,4.68.3,3.3.07,6.66.07,10Z"/><path class="cls-2" d="M536.13,724c.17-3.33.17-6.68.57-10a4.39,4.39,0,0,1,4.26-4.2,4.31,4.31,0,0,1,4.58,3.84,60,60,0,0,1,.08,20.71c-.46,2.7-2.32,4.48-5.13,4.21-2.49-.23-3.74-2.22-3.9-4.58-.24-3.32-.06-6.66-.06-10Z"/><path class="cls-2" d="M522.27,724.36c0-3.3-.23-6.61.07-9.88.25-2.66,1.79-4.67,4.62-4.72a4.42,4.42,0,0,1,4.71,4.54c.27,6.31.31,12.64,0,18.94-.13,2.94-1.84,5.36-5.08,5.15s-4.32-2.82-4.49-5.78c-.15-2.74,0-5.5,0-8.25Z"/><path class="cls-2" d="M517.82,725.2c-1,4.18,2.38,12.53-5,12.73-7.9.21-4.21-8.24-5.07-13.06a25.2,25.2,0,0,1,0-5.76c.23-4-.47-9.42,5.21-9.2s4.58,5.63,4.83,9.61C517.91,721.16,517.82,722.82,517.82,725.2Z"/><path class="cls-2" d="M602.2,725.48c-1,3.46,3.18,12.51-5.08,12.37-7.14-.13-4.11-8.67-4.67-13.74a44.19,44.19,0,0,1,.2-9.12c.29-3,1.7-5.41,5-5.21,2.82.17,4.25,2.29,4.47,5C602.39,717.79,602.2,720.85,602.2,725.48Z"/><path class="cls-2" d="M573.67,723.89c0,3.31.17,6.64,0,9.93-.16,2.39-1.53,4.24-3.93,4.54-2.9.37-4.41-1.59-5-4.25-1.34-6.27-1-12.64-.39-19,.27-2.93,1.61-5.53,4.94-5.33s4.36,2.79,4.51,5.79c.14,2.75,0,5.52,0,8.28Z"/><path class="cls-2" d="M218.82,851.31c8.46-3.15,16.75-5,25,.94A24.66,24.66,0,0,1,250,885.89c-6.79,10.14-21.45,12.77-31.17,5.58a24,24,0,0,1-5.34-33c1.68-2.49,3.57-4.81,5.36-7.2ZM246,871.58c-.14-9.31-5.94-15.29-14.55-15-7.81.24-15,7.77-14.86,15.55.15,8.22,7.09,15.49,14.87,15.57C240.2,887.76,246.18,881.14,246,871.58Z"/><path class="cls-2" d="M225.26,156.87c-2.45,1.07-4.88,2.16-7.34,3.19-10.58,4.46-22.29.17-28.19-10.31-5.56-9.89-3.23-21.84,5.82-29.83,7.92-7,20.67-6.84,28.6.32a24.87,24.87,0,0,1,4.64,30.27c-1.23,2.12-2.39,4.28-3.59,6.42Zm-15.42-3.33a15.39,15.39,0,0,0,14.8-16.23c-.3-7.76-7.9-15.09-15.54-15-7.85.11-15.21,8.3-14.89,16.55A15.8,15.8,0,0,0,209.84,153.54Z"/><path class="cls-2" d="M709.56,345.33c13-.13,23.63,10.59,23.77,24.06.14,13.06-10.15,24.35-22.42,24.61-13.08.27-24.29-11.1-24.21-24.56C686.77,356.43,697.19,345.45,709.56,345.33Zm17.17,24.31c.15-9.91-6.79-17.16-16.63-17.38s-16.79,6.66-16.82,16.9,6.84,17.77,16.12,18C719.44,387.39,726.58,380.17,726.73,369.64Z"/><path class="cls-2" d="M718.78,369.21c-.44,5.77-3.5,9.06-8.65,9.08s-8.74-3.17-8.61-8.78c.11-5.28,3-9,8.47-8.95C715.3,360.62,718.11,364,718.78,369.21Z"/></g></g></g></svg>