<?xml version="1.0" encoding="UTF-8"?>
<svg width="162px" height="44px" viewBox="0 0 162 44" version="1.1" xmlns="http://www.w3.org/2000/svg" xmlns:xlink="http://www.w3.org/1999/xlink">
    <title>Group</title>
    <defs>
        <linearGradient x1="96.4843109%" y1="78.8034558%" x2="2.69498106%" y2="23.5743484%" id="linearGradient-1">
            <stop stop-color="#1A64D0" offset="0%"></stop>
            <stop stop-color="#1BC7BF" offset="100%"></stop>
        </linearGradient>
    </defs>
    <g id="FineAutomations" stroke="none" stroke-width="1" fill="none" fill-rule="evenodd">
        <g id="LOGO_18" transform="translate(-407.000000, -102.000000)">
            <g id="Group" transform="translate(408.863009, 104.287109)">
                <polyline id="Path-22" stroke="url(#linearGradient-1)" stroke-width="3" stroke-linecap="round" stroke-linejoin="round" points="35.1425334 4.84995907 38.2044806 0.175489843 18.9509113 0.175489843 0 32.7213847 4.82147924 40.1754898 14.2468063 24.7667523 32.8105456 24.7667523 28.6491632 16.6346386 18.9509113 16.6346386 24.1876758 8.12116119 32.8105456 8.12116119 47.602161 32.7213847 42.809082 40.1754898 38.2044806 32.7213847 18.9509113 32.7213847 21.9139291 28.5016227"></polyline>
                <g id="FINE" transform="translate(57.815082, 0.000000)" fill="#FFFFFF" fill-rule="nonzero">
                    <polygon id="Path" points="20.4486591 10.2753906 19.4936112 14.7971298 8.05072244 14.7971298 5.73384698 25.7128906 0.321908883 25.7128906 5.83996341 -0.287109375 24.3219089 -0.287109375 23.3491749 4.28761889 10.2791675 4.28761889 9.00577034 10.2753906"></polygon>
                    <polygon id="Path" points="28.3219089 25.7128906 33.884106 -0.287109375 39.3219089 -0.287109375 33.7597118 25.7128906"></polygon>
                    <polygon id="Path" points="60.2179354 25.7128906 53.4232334 7.24477665 49.453697 25.7128906 44.3219089 25.7128906 49.9185976 -0.287109375 55.6940943 -0.287109375 62.2742268 17.8635012 66.1901208 -0.287109375 71.3219089 -0.287109375 65.7252201 25.7128906"></polygon>
                    <polygon id="Path" points="98.3584942 21.0385351 97.3541901 25.7128906 77.3219089 25.7128906 82.9352518 -0.287109375 102.321909 -0.287109375 101.317605 4.31668981 87.3290825 4.31668981 86.1454383 9.83772102 98.9861843 9.83772102 97.9998142 14.3533248 85.1590681 14.3533248 83.7243479 21.0385351"></polygon>
                </g>
                <g id="AUTOMATION" transform="translate(55.365506, 29.414705)" fill="#FFFFFF" fill-rule="nonzero">
                    <path d="M7.42406317,0.29818603 L8.77148438,9.29818603 L6.61818925,9.29818603 L6.41833251,7.44811819 L2.91761618,7.44811819 L1.84741561,9.29818603 L-0.228515625,9.29818603 L5.18051016,0.29818603 L7.42406317,0.29818603 Z M5.81876231,2.35585224 L3.800854,5.89723623 L6.21202879,5.89723623 L5.81876231,2.35585224 Z" id="Shape"></path>
                    <path d="M20.7714844,0.29818603 L19.5345831,5.69104317 C19.3209559,6.62358286 18.9983789,7.34977333 18.566852,7.8696146 C17.7678864,8.82199555 16.5502116,9.29818603 14.9138275,9.29818603 C13.2774434,9.29818603 12.275532,8.82199555 11.9080933,7.8696146 C11.7158289,7.34977333 11.7265102,6.62358286 11.9401374,5.69104317 L13.1770387,0.29818603 L15.1829978,0.29818603 L13.9460965,5.69104317 C13.8093751,6.29421778 13.7858761,6.73469397 13.8755995,7.01247174 C14.0037758,7.50453524 14.469483,7.75056698 15.2727212,7.75056698 C16.0716868,7.75056698 16.6463438,7.50453524 16.9966924,7.01247174 C17.2145921,6.73469397 17.3919026,6.29421778 17.528624,5.69104317 L18.7655253,0.29818603 L20.7714844,0.29818603 Z" id="Path"></path>
                    <polygon id="Path" points="22.7714844 1.89180882 23.1298844 0.29818603 30.7714844 0.29818603 30.4130844 1.89180882 27.5906844 1.89180882 25.9458844 9.29818603 23.9618844 9.29818603 25.6066844 1.89180882"></polygon>
                    <path d="M40.0248139,0.400750132 C40.7604226,1.2682715 40.9524982,2.5674168 40.6010407,4.29818603 C40.25367,5.99476723 39.5323648,7.29391253 38.4371252,8.19562193 C37.6075221,8.93066466 36.5470196,9.29818603 35.2556177,9.29818603 C33.9642159,9.29818603 33.0508351,8.93066466 32.5154755,8.19562193 C31.7839535,7.29391253 31.5918779,5.99476723 31.9392487,4.29818603 C32.2907061,2.5674168 33.0120113,1.2682715 34.1031642,0.400750132 C34.9327673,-0.334292603 35.9932698,-0.70181397 37.2846716,-0.70181397 C38.5760735,-0.70181397 39.4894543,-0.334292603 40.0248139,0.400750132 Z M36.9475177,0.971262953 C36.1996489,0.971262953 35.5447528,1.25972449 34.9828295,1.83664757 C34.4209062,2.41357065 34.0316466,3.23408347 33.8150508,4.29818603 C33.5984549,5.36228859 33.6536255,6.18280141 33.9805627,6.75972449 C34.3074999,7.33664757 34.8449029,7.62510911 35.5927717,7.62510911 C36.3406405,7.62510911 36.9934932,7.33664757 37.5513298,6.75972449 C38.1091664,6.18280141 38.4963826,5.36228859 38.7129785,4.29818603 C38.9254876,3.23835697 38.8713387,2.41891253 38.5505316,1.8398527 C38.2297244,1.26079287 37.6953865,0.971262953 36.9475177,0.971262953 Z" id="Shape"></path>
                    <path d="M48.2208515,9.29818603 L46.3284464,9.29818603 L46.2335097,1.7452688 C46.1997544,1.91623216 46.1501764,2.1594479 46.0847755,2.47491602 C46.0193747,2.79038413 45.9655772,3.03563515 45.9233831,3.21066907 L44.5879401,9.29818603 L42.7714844,9.29818603 L44.752497,0.29818603 L47.5879401,0.29818603 L47.7208515,7.37484817 L50.9676869,0.29818603 L53.7714844,0.29818603 L51.7904717,9.29818603 L49.974016,9.29818603 L51.3094591,3.21066907 C51.3516532,3.03563515 51.40967,2.79038413 51.4835097,2.47491602 C51.5573494,2.1594479 51.6111468,1.91623216 51.6449021,1.7452688 L48.2208515,9.29818603 Z" id="Path"></path>
                    <path d="M61.4240632,0.29818603 L62.7714844,9.29818603 L60.6181892,9.29818603 L60.4183325,7.44811819 L56.9176162,7.44811819 L55.8474156,9.29818603 L53.7714844,9.29818603 L59.1805102,0.29818603 L61.4240632,0.29818603 Z M59.8187623,2.35585224 L57.800854,5.89723623 L60.2120288,5.89723623 L59.8187623,2.35585224 Z" id="Shape"></path>
                    <polygon id="Path" points="65.7714844 1.89180882 66.1298844 0.29818603 73.7714844 0.29818603 73.4130844 1.89180882 70.5906844 1.89180882 68.9458844 9.29818603 66.9618844 9.29818603 68.6066844 1.89180882"></polygon>
                    <polygon id="Path" points="73.7714844 9.29818603 75.7941015 0.29818603 77.7714844 0.29818603 75.7488673 9.29818603"></polygon>
                    <path d="M88.0248139,0.400750132 C88.7604226,1.2682715 88.9524982,2.5674168 88.6010407,4.29818603 C88.25367,5.99476723 87.5323648,7.29391253 86.4371252,8.19562193 C85.6075221,8.93066466 84.5470196,9.29818603 83.2556177,9.29818603 C81.9642159,9.29818603 81.0508351,8.93066466 80.5154755,8.19562193 C79.7839535,7.29391253 79.5918779,5.99476723 79.9392487,4.29818603 C80.2907061,2.5674168 81.0120113,1.2682715 82.1031642,0.400750132 C82.9327673,-0.334292603 83.9932698,-0.70181397 85.2846716,-0.70181397 C86.5760735,-0.70181397 87.4894543,-0.334292603 88.0248139,0.400750132 Z M84.9475177,0.971262953 C84.1996489,0.971262953 83.5447528,1.25972449 82.9828295,1.83664757 C82.4209062,2.41357065 82.0316466,3.23408347 81.8150508,4.29818603 C81.5984549,5.36228859 81.6536255,6.18280141 81.9805627,6.75972449 C82.3074999,7.33664757 82.8449029,7.62510911 83.5927717,7.62510911 C84.3406405,7.62510911 84.9934932,7.33664757 85.5513298,6.75972449 C86.1091664,6.18280141 86.4963826,5.36228859 86.7129785,4.29818603 C86.9254876,3.23835697 86.8713387,2.41891253 86.5505316,1.8398527 C86.2297244,1.26079287 85.6953865,0.971262953 84.9475177,0.971262953 Z" id="Shape"></path>
                    <polygon id="Path" points="96.0701599 9.29818603 93.8052592 2.90537735 92.4820804 9.29818603 90.7714844 9.29818603 92.6370473 0.29818603 94.5622129 0.29818603 96.7555903 6.58108969 98.0608883 0.29818603 99.7714844 0.29818603 97.9059215 9.29818603"></polygon>
                </g>
            </g>
        </g>
    </g>
</svg>